<?xml version="1.0" encoding="UTF-8" standalone="no"?>
<svg
   xmlns:dc="http://purl.org/dc/elements/1.1/"
   xmlns:cc="http://creativecommons.org/ns#"
   xmlns:rdf="http://www.w3.org/1999/02/22-rdf-syntax-ns#"
   xmlns:svg="http://www.w3.org/2000/svg"
   xmlns="http://www.w3.org/2000/svg"
   xmlns:xlink="http://www.w3.org/1999/xlink"
   xmlns:sodipodi="http://sodipodi.sourceforge.net/DTD/sodipodi-0.dtd"
   xmlns:inkscape="http://www.inkscape.org/namespaces/inkscape"
   viewBox="0 0 128 128"
   version="1.1"
   id="svg556"
   sodipodi:docname="wall-horizontal.svg"
   inkscape:version="1.0.2-2 (e86c870879, 2021-01-15)">
  <metadata
     id="metadata560">
    <rdf:RDF>
      <cc:Work
         rdf:about="">
        <dc:format>image/svg+xml</dc:format>
        <dc:type
           rdf:resource="http://purl.org/dc/dcmitype/StillImage" />
        <dc:title></dc:title>
      </cc:Work>
    </rdf:RDF>
  </metadata>
  <sodipodi:namedview
     pagecolor="#ffffff"
     bordercolor="#666666"
     borderopacity="1"
     objecttolerance="10"
     gridtolerance="10"
     guidetolerance="10"
     inkscape:pageopacity="0"
     inkscape:pageshadow="2"
     inkscape:window-width="1920"
     inkscape:window-height="1017"
     id="namedview558"
     showgrid="false"
     showguides="true"
     inkscape:guide-bbox="true"
     inkscape:zoom="6.640625"
     inkscape:cx="64"
     inkscape:cy="68.709601"
     inkscape:window-x="-8"
     inkscape:window-y="-8"
     inkscape:window-maximized="1"
     inkscape:current-layer="svg556">
    <sodipodi:guide
       position="29.967059,122.88"
       orientation="0,-1"
       id="guide562" />
  </sodipodi:namedview>
  <defs
     id="defs372">
    <filter
       id="bx">
      <feGaussianBlur
         stdDeviation="1.61105"
         id="feGaussianBlur286" />
    </filter>
    <linearGradient
       id="a">
      <stop
         stop-color="#b1b1b1"
         offset="0"
         id="stop289" />
      <stop
         stop-color="#e4e4e4"
         offset="1"
         id="stop291" />
    </linearGradient>
    <linearGradient
       id="b">
      <stop
         stop-color="#6a3c1d"
         offset="0"
         id="stop294" />
      <stop
         stop-color="#8f5127"
         offset="1"
         id="stop296" />
    </linearGradient>
    <linearGradient
       id="bw"
       x1="19.83"
       x2="34.446"
       y1="81.461"
       y2="98.951"
       gradientUnits="userSpaceOnUse"
       xlink:href="#a"
       gradientTransform="matrix(0.96320118,0.27553669,-0.275937,0.96460054,17.710325,-18.756843)" />
    <linearGradient
       id="bv"
       x1="20.83"
       x2="31.018"
       y1="55.812"
       y2="60.5"
       gradientUnits="userSpaceOnUse"
       xlink:href="#a"
       gradientTransform="matrix(0.95876232,0.2742669,-0.2762619,0.96573629,17.783453,-18.765622)" />
    <linearGradient
       id="bu"
       x1="24.393"
       x2="30.268"
       y1="64.75"
       y2="58.938"
       gradientUnits="userSpaceOnUse"
       xlink:href="#a"
       gradientTransform="matrix(0.95876232,0.2742669,-0.2762619,0.96573629,17.783455,-18.76563)" />
    <linearGradient
       id="bt"
       x1="18.205"
       x2="19.018"
       y1="62.938"
       y2="60.188"
       gradientUnits="userSpaceOnUse"
       xlink:href="#a"
       gradientTransform="matrix(0.95876232,0.2742669,-0.2762619,0.96573629,17.783454,-18.765626)" />
    <linearGradient
       id="bs"
       x1="20.643"
       x2="22.83"
       y1="65.344"
       y2="63.656"
       gradientUnits="userSpaceOnUse"
       xlink:href="#a"
       gradientTransform="matrix(0.95876232,0.2742669,-0.2762619,0.96573629,17.783453,-18.765624)" />
    <linearGradient
       id="br"
       x1="24.393"
       x2="23.643"
       y1="66.98"
       y2="64.75"
       gradientUnits="userSpaceOnUse"
       xlink:href="#a"
       gradientTransform="matrix(0.95876232,0.2742669,-0.2762619,0.96573629,17.783454,-18.76563)" />
    <linearGradient
       id="bq"
       x1="26.143"
       x2="27.205"
       y1="64.031"
       y2="66.031"
       gradientUnits="userSpaceOnUse"
       xlink:href="#a"
       gradientTransform="matrix(0.95876232,0.2742669,-0.2762619,0.96573629,17.783454,-18.765627)" />
    <linearGradient
       id="bp"
       x1="30.205"
       x2="28.768"
       y1="63.781"
       y2="60.781"
       gradientUnits="userSpaceOnUse"
       xlink:href="#a"
       gradientTransform="matrix(0.95876232,0.2742669,-0.2762619,0.96573629,17.783454,-18.765626)" />
    <linearGradient
       id="bo"
       x1="34.393"
       x2="33.643"
       y1="65.562"
       y2="61.812"
       gradientUnits="userSpaceOnUse"
       xlink:href="#a"
       gradientTransform="matrix(0.95876232,0.2742669,-0.2762619,0.96573629,17.783454,-18.765626)" />
    <linearGradient
       id="bn"
       x1="34.83"
       x2="37.143"
       y1="59.844"
       y2="60.406"
       gradientUnits="userSpaceOnUse"
       xlink:href="#a"
       gradientTransform="matrix(0.95876232,0.2742669,-0.2762619,0.96573629,17.783453,-18.765623)" />
    <linearGradient
       id="bm"
       x1="36.518"
       x2="33.643"
       y1="58.781"
       y2="55.406"
       gradientUnits="userSpaceOnUse"
       xlink:href="#a"
       gradientTransform="matrix(0.95876232,0.2742669,-0.2762619,0.96573629,17.783455,-18.765631)" />
    <linearGradient
       id="bl"
       x1="31.393"
       x2="30.986"
       y1="57.562"
       y2="55.438"
       gradientUnits="userSpaceOnUse"
       xlink:href="#a"
       gradientTransform="matrix(0.95876232,0.2742669,-0.2762619,0.96573629,17.783454,-18.765631)" />
    <linearGradient
       id="bk"
       x2="0"
       y1="54.688"
       y2="52.219"
       gradientUnits="userSpaceOnUse"
       xlink:href="#a"
       gradientTransform="matrix(0.95876232,0.2742669,-0.2762619,0.96573629,17.783454,-18.765627)" />
    <linearGradient
       id="bj"
       x1="23.33"
       x2="24.893"
       y1="53.812"
       y2="55.312"
       gradientUnits="userSpaceOnUse"
       xlink:href="#a"
       gradientTransform="matrix(0.95876232,0.2742669,-0.2762619,0.96573629,17.783454,-18.765628)" />
    <linearGradient
       id="bi"
       x1="22.33"
       x2="23.205"
       y1="57.312"
       y2="55"
       gradientUnits="userSpaceOnUse"
       xlink:href="#a"
       gradientTransform="matrix(0.95876232,0.2742669,-0.2762619,0.96573629,17.783452,-18.765623)" />
    <linearGradient
       id="bh"
       x1="17.768"
       x2="19.955"
       y1="57.125"
       y2="53.562"
       gradientUnits="userSpaceOnUse"
       xlink:href="#a"
       gradientTransform="matrix(0.95876232,0.2742669,-0.2762619,0.96573629,17.783453,-18.765623)" />
    <linearGradient
       id="bg"
       x1="15.518"
       x2="17.393"
       y1="57.094"
       y2="58.656"
       gradientUnits="userSpaceOnUse"
       xlink:href="#a"
       gradientTransform="matrix(0.95876232,0.2742669,-0.2762619,0.96573629,17.783454,-18.765628)" />
    <linearGradient
       id="bf"
       x1="15.33"
       x2="17.393"
       y1="61.031"
       y2="59"
       gradientUnits="userSpaceOnUse"
       xlink:href="#a"
       gradientTransform="matrix(0.95876232,0.2742669,-0.2762619,0.96573629,17.783455,-18.76563)" />
    <linearGradient
       id="be"
       x1="23.643"
       x2="30.768"
       y1="65.562"
       y2="72.625"
       gradientUnits="userSpaceOnUse"
       xlink:href="#a"
       gradientTransform="matrix(0.95876232,0.2742669,-0.2762619,0.96573629,17.783455,-18.76563)" />
    <linearGradient
       id="bd"
       x1="105.29"
       x2="119.9"
       y1="53.014"
       y2="70.504"
       gradientUnits="userSpaceOnUse"
       xlink:href="#a"
       gradientTransform="matrix(0.95876232,0.2742669,-0.2762619,0.96573629,17.783446,-18.765631)" />
    <linearGradient
       id="bc"
       x1="109.1"
       x2="116.22"
       y1="37.115"
       y2="44.178"
       gradientUnits="userSpaceOnUse"
       xlink:href="#a"
       gradientTransform="matrix(0.95876232,0.2742669,-0.2762619,0.96573629,17.783415,-18.765632)" />
    <linearGradient
       id="bb"
       x1="100.79"
       x2="102.85"
       y1="32.584"
       y2="30.553"
       gradientUnits="userSpaceOnUse"
       xlink:href="#a"
       gradientTransform="matrix(0.95876232,0.2742669,-0.2762619,0.96573629,17.783455,-18.765626)" />
    <linearGradient
       id="ba"
       x1="100.97"
       x2="102.85"
       y1="28.646"
       y2="30.209"
       gradientUnits="userSpaceOnUse"
       xlink:href="#a"
       gradientTransform="matrix(0.95876232,0.2742669,-0.2762619,0.96573629,17.783456,-18.76563)" />
    <linearGradient
       id="az"
       x1="103.22"
       x2="105.41"
       y1="28.678"
       y2="25.115"
       gradientUnits="userSpaceOnUse"
       xlink:href="#a"
       gradientTransform="matrix(0.95876232,0.2742669,-0.2762619,0.96573629,17.783455,-18.765627)" />
    <linearGradient
       id="ay"
       x1="107.79"
       x2="108.66"
       y1="28.865"
       y2="26.553"
       gradientUnits="userSpaceOnUse"
       xlink:href="#a"
       gradientTransform="matrix(0.95876232,0.2742669,-0.2762619,0.96573629,17.783455,-18.765627)" />
    <linearGradient
       id="ax"
       x1="108.79"
       x2="110.35"
       y1="25.365"
       y2="26.865"
       gradientUnits="userSpaceOnUse"
       xlink:href="#a"
       gradientTransform="matrix(0.95876232,0.2742669,-0.2762619,0.96573629,17.783456,-18.76563)" />
    <linearGradient
       id="aw"
       x2="0"
       y1="26.24"
       y2="23.771"
       gradientUnits="userSpaceOnUse"
       xlink:href="#a"
       gradientTransform="matrix(0.95876232,0.2742669,-0.2762619,0.96573629,17.783475,-18.765587)" />
    <linearGradient
       id="av"
       x1="116.85"
       x2="116.44"
       y1="29.115"
       y2="26.99"
       gradientUnits="userSpaceOnUse"
       xlink:href="#a"
       gradientTransform="matrix(0.95876232,0.2742669,-0.2762619,0.96573629,17.783455,-18.765626)" />
    <linearGradient
       id="au"
       x1="121.97"
       x2="119.1"
       y1="30.334"
       y2="26.959"
       gradientUnits="userSpaceOnUse"
       xlink:href="#a"
       gradientTransform="matrix(0.95876232,0.2742669,-0.2762619,0.96573629,17.783455,-18.765626)" />
    <linearGradient
       id="at"
       x1="120.29"
       x2="122.6"
       y1="31.396"
       y2="31.959"
       gradientUnits="userSpaceOnUse"
       xlink:href="#a"
       gradientTransform="matrix(0.95876232,0.2742669,-0.2762619,0.96573629,17.783454,-18.765623)" />
    <linearGradient
       id="as"
       x1="119.85"
       x2="119.1"
       y1="37.115"
       y2="33.365"
       gradientUnits="userSpaceOnUse"
       xlink:href="#a"
       gradientTransform="matrix(0.95876232,0.2742669,-0.2762619,0.96573629,17.783454,-18.765624)" />
    <linearGradient
       id="ar"
       x1="115.66"
       x2="114.22"
       y1="35.334"
       y2="32.334"
       gradientUnits="userSpaceOnUse"
       xlink:href="#a"
       gradientTransform="matrix(0.95876232,0.2742669,-0.2762619,0.96573629,17.783456,-18.765629)" />
    <linearGradient
       id="aq"
       x1="111.6"
       x2="112.66"
       y1="35.584"
       y2="37.584"
       gradientUnits="userSpaceOnUse"
       xlink:href="#a"
       gradientTransform="matrix(0.95876232,0.2742669,-0.2762619,0.96573629,17.783456,-18.76563)" />
    <linearGradient
       id="ap"
       x1="109.85"
       x2="109.1"
       y1="38.532"
       y2="36.303"
       gradientUnits="userSpaceOnUse"
       xlink:href="#a"
       gradientTransform="matrix(0.95876232,0.2742669,-0.2762619,0.96573629,17.783455,-18.765626)" />
    <linearGradient
       id="ao"
       x1="106.1"
       x2="108.29"
       y1="36.896"
       y2="35.209"
       gradientUnits="userSpaceOnUse"
       xlink:href="#a"
       gradientTransform="matrix(0.95876232,0.2742669,-0.2762619,0.96573629,17.783454,-18.765623)" />
    <linearGradient
       id="an"
       x1="103.66"
       x2="104.47"
       y1="34.49"
       y2="31.74"
       gradientUnits="userSpaceOnUse"
       xlink:href="#a"
       gradientTransform="matrix(0.95876232,0.2742669,-0.2762619,0.96573629,17.783454,-18.765624)" />
    <linearGradient
       id="am"
       x1="109.85"
       x2="115.72"
       y1="36.303"
       y2="30.49"
       gradientUnits="userSpaceOnUse"
       xlink:href="#a"
       gradientTransform="matrix(0.95876232,0.2742669,-0.2762619,0.96573629,17.783454,-18.765624)" />
    <linearGradient
       id="al"
       x1="106.29"
       x2="116.47"
       y1="27.365"
       y2="32.053"
       gradientUnits="userSpaceOnUse"
       xlink:href="#a"
       gradientTransform="matrix(0.95876232,0.2742669,-0.2762619,0.96573629,17.783455,-18.765627)" />
    <linearGradient
       id="ak"
       x1="47.295"
       x2="100.6"
       y1="104.48"
       y2="61.624"
       gradientUnits="userSpaceOnUse"
       xlink:href="#a"
       gradientTransform="matrix(0.95876232,0.2742669,-0.2762619,0.96573629,17.783463,-18.765622)" />
    <linearGradient
       id="aj"
       x1="82.81"
       x2="86.674"
       y1="74.192"
       y2="89.032"
       gradientUnits="userSpaceOnUse"
       xlink:href="#a"
       gradientTransform="matrix(0.95876232,0.2742669,-0.2762619,0.96573629,17.783458,-18.765626)" />
    <linearGradient
       id="ai"
       x1="71.263"
       x2="71.577"
       y1="77.265"
       y2="78.319"
       gradientUnits="userSpaceOnUse"
       xlink:href="#b"
       gradientTransform="matrix(0.95876232,0.2742669,-0.2762619,0.96573629,17.78345,-18.765632)" />
    <linearGradient
       id="ah"
       x1="71.395"
       x2="71.621"
       y1="81.041"
       y2="81.744"
       gradientUnits="userSpaceOnUse"
       xlink:href="#b"
       gradientTransform="matrix(0.95876232,0.2742669,-0.2762619,0.96573629,17.783452,-18.765624)" />
    <linearGradient
       id="ag"
       x1="71.395"
       x2="71.665"
       y1="85.125"
       y2="86.003"
       gradientUnits="userSpaceOnUse"
       xlink:href="#b"
       gradientTransform="matrix(0.95876232,0.2742669,-0.2762619,0.96573629,17.783455,-18.765631)" />
    <linearGradient
       id="af"
       x1="71.438"
       x2="71.753"
       y1="89.34"
       y2="90.306"
       gradientUnits="userSpaceOnUse"
       xlink:href="#b"
       gradientTransform="matrix(0.95876232,0.2742669,-0.2762619,0.96573629,17.783461,-18.765627)" />
    <linearGradient
       id="ae"
       x1="71.614"
       x2="71.885"
       y1="93.247"
       y2="93.994"
       gradientUnits="userSpaceOnUse"
       xlink:href="#b"
       gradientTransform="matrix(0.95876232,0.2742669,-0.2762619,0.96573629,17.783459,-18.765631)" />
    <linearGradient
       id="ad"
       x1="61.823"
       x2="62.284"
       gradientUnits="userSpaceOnUse"
       xlink:href="#b"
       gradientTransform="matrix(0.95876232,0.2742669,-0.2762619,0.96573629,17.783452,-18.765631)" />
    <linearGradient
       id="ac"
       x1="67.794"
       x2="68.255"
       gradientUnits="userSpaceOnUse"
       xlink:href="#b"
       gradientTransform="matrix(0.95876232,0.2742669,-0.2762619,0.96573629,17.78346,-18.765635)" />
    <linearGradient
       id="ab"
       x1="73.546"
       x2="74.007"
       gradientUnits="userSpaceOnUse"
       xlink:href="#b"
       gradientTransform="matrix(0.95876232,0.2742669,-0.2762619,0.96573629,17.783449,-18.765624)" />
    <linearGradient
       id="aa"
       x1="78.025"
       x2="78.486"
       gradientUnits="userSpaceOnUse"
       xlink:href="#b"
       gradientTransform="matrix(0.95876232,0.2742669,-0.2762619,0.96573629,17.783458,-18.765629)" />
    <linearGradient
       id="z"
       x1="83.381"
       x2="83.842"
       gradientUnits="userSpaceOnUse"
       xlink:href="#b"
       gradientTransform="matrix(0.95876232,0.2742669,-0.2762619,0.96573629,17.783454,-18.765626)" />
    <linearGradient
       id="y"
       x1="69.678"
       x2="70.782"
       y1="63.766"
       y2="66.86"
       gradientUnits="userSpaceOnUse"
       xlink:href="#a"
       gradientTransform="matrix(0.95876232,0.2742669,-0.2762619,0.96573629,17.783444,-18.765626)" />
    <linearGradient
       id="x"
       x1="100.53"
       x2="103.18"
       y1="53.489"
       y2="50.395"
       gradientUnits="userSpaceOnUse"
       xlink:href="#a"
       gradientTransform="matrix(0.95876232,0.2742669,-0.2762619,0.96573629,17.783454,-18.765623)" />
    <linearGradient
       id="w"
       x1="100.35"
       x2="101.59"
       y1="54.24"
       y2="56.229"
       gradientUnits="userSpaceOnUse"
       xlink:href="#a"
       gradientTransform="matrix(0.95876232,0.2742669,-0.2762619,0.96573629,17.783459,-18.76563)" />
    <linearGradient
       id="v"
       x1="96.813"
       x2="98.669"
       y1="56.229"
       y2="54.019"
       gradientUnits="userSpaceOnUse"
       xlink:href="#a"
       gradientTransform="matrix(0.95876232,0.2742669,-0.2762619,0.96573629,17.78345,-18.76563)" />
    <linearGradient
       id="u"
       x1="91.509"
       x2="95.045"
       y1="56.847"
       y2="53.135"
       gradientUnits="userSpaceOnUse"
       xlink:href="#a"
       gradientTransform="matrix(0.95876232,0.2742669,-0.2762619,0.96573629,17.783451,-18.765625)" />
    <linearGradient
       id="t"
       x1="90.626"
       x2="91.951"
       y1="57.024"
       y2="58.704"
       gradientUnits="userSpaceOnUse"
       xlink:href="#a"
       gradientTransform="matrix(0.95876232,0.2742669,-0.2762619,0.96573629,17.783454,-18.765626)" />
    <linearGradient
       id="s"
       x1="87.886"
       x2="88.593"
       y1="58.615"
       y2="56.582"
       gradientUnits="userSpaceOnUse"
       xlink:href="#a"
       gradientTransform="matrix(0.95876232,0.2742669,-0.2762619,0.96573629,17.783452,-18.765623)" />
    <linearGradient
       id="r"
       x1="83.378"
       x2="85.234"
       y1="59.234"
       y2="56.317"
       gradientUnits="userSpaceOnUse"
       xlink:href="#a"
       gradientTransform="matrix(0.95876232,0.2742669,-0.2762619,0.96573629,17.783459,-18.765627)" />
    <linearGradient
       id="q"
       x1="81.831"
       x2="83.201"
       y1="59.853"
       y2="61.886"
       gradientUnits="userSpaceOnUse"
       xlink:href="#a"
       gradientTransform="matrix(0.95876232,0.2742669,-0.2762619,0.96573629,17.783456,-18.765625)" />
    <linearGradient
       id="p"
       x1="78.958"
       x2="80.107"
       y1="63.035"
       y2="60.56"
       gradientUnits="userSpaceOnUse"
       xlink:href="#a"
       gradientTransform="matrix(0.95876232,0.2742669,-0.2762619,0.96573629,17.783454,-18.765627)" />
    <linearGradient
       id="o"
       x1="73.478"
       x2="75.29"
       y1="61.974"
       y2="59.322"
       gradientUnits="userSpaceOnUse"
       xlink:href="#a"
       gradientTransform="matrix(0.95876232,0.2742669,-0.2762619,0.96573629,17.783457,-18.765627)" />
    <linearGradient
       id="n"
       x1="73.346"
       x2="74.804"
       y1="62.548"
       y2="64.36"
       gradientUnits="userSpaceOnUse"
       xlink:href="#a"
       gradientTransform="matrix(0.95876232,0.2742669,-0.2762619,0.96573629,17.783453,-18.765622)" />
    <linearGradient
       id="m"
       x1="69.854"
       x2="70.738"
       y1="64.051"
       y2="63.035"
       gradientUnits="userSpaceOnUse"
       xlink:href="#a"
       gradientTransform="matrix(0.95876232,0.2742669,-0.2762619,0.96573629,17.783452,-18.765631)" />
    <linearGradient
       id="l"
       x1="66.142"
       x2="66.761"
       y1="64.36"
       y2="61.797"
       gradientUnits="userSpaceOnUse"
       xlink:href="#a"
       gradientTransform="matrix(0.95876232,0.2742669,-0.2762619,0.96573629,17.783453,-18.76563)" />
    <linearGradient
       id="k"
       x1="64.684"
       x2="66.142"
       y1="64.891"
       y2="66.57"
       gradientUnits="userSpaceOnUse"
       xlink:href="#a"
       gradientTransform="matrix(0.95876232,0.2742669,-0.2762619,0.96573629,17.783455,-18.765625)" />
    <linearGradient
       id="j"
       x1="60.662"
       x2="63.402"
       y1="66.791"
       y2="65.421"
       gradientUnits="userSpaceOnUse"
       xlink:href="#a"
       gradientTransform="matrix(0.95876232,0.2742669,-0.2762619,0.96573629,17.783454,-18.765622)" />
    <linearGradient
       id="i"
       x1="56.773"
       x2="57.392"
       y1="67.056"
       y2="64.802"
       gradientUnits="userSpaceOnUse"
       xlink:href="#a"
       gradientTransform="matrix(0.95876232,0.2742669,-0.2762619,0.96573629,17.783456,-18.765623)" />
    <linearGradient
       id="h"
       x1="55.403"
       x2="56.861"
       y1="67.94"
       y2="69.575"
       gradientUnits="userSpaceOnUse"
       xlink:href="#a"
       gradientTransform="matrix(0.95876232,0.2742669,-0.2762619,0.96573629,17.783456,-18.765622)" />
    <linearGradient
       id="g"
       x1="50.674"
       x2="53.679"
       y1="69.708"
       y2="68.338"
       gradientUnits="userSpaceOnUse"
       xlink:href="#a"
       gradientTransform="matrix(0.95876232,0.2742669,-0.2762619,0.96573629,17.783451,-18.765626)" />
    <linearGradient
       id="f"
       x1="45.901"
       x2="49.525"
       y1="69.929"
       y2="67.366"
       gradientUnits="userSpaceOnUse"
       xlink:href="#a"
       gradientTransform="matrix(0.95876232,0.2742669,-0.2762619,0.96573629,17.783455,-18.765622)" />
    <linearGradient
       id="e"
       x1="45.282"
       x2="46.255"
       y1="70.68"
       y2="72.006"
       gradientUnits="userSpaceOnUse"
       xlink:href="#a"
       gradientTransform="matrix(0.95876232,0.2742669,-0.2762619,0.96573629,17.78346,-18.765628)" />
    <linearGradient
       id="d"
       x1="41.658"
       x2="43.161"
       y1="73.288"
       y2="70.901"
       gradientUnits="userSpaceOnUse"
       xlink:href="#a"
       gradientTransform="matrix(0.95876232,0.2742669,-0.2762619,0.96573629,17.783451,-18.765628)" />
    <linearGradient
       id="c"
       x1="36.09"
       x2="37.99"
       y1="71.962"
       y2="70.194"
       gradientUnits="userSpaceOnUse"
       xlink:href="#a"
       gradientTransform="matrix(0.95876232,0.2742669,-0.2762619,0.96573629,17.783454,-18.765623)" />
  </defs>
  <path
     d="m 95.833647,45.043235 c 1.7938,0.817 2.494,2.7386 0.69721,0.56625 -3.0077,-0.76628 3.135,2.9418 -0.66886,1.1164 -2.0732,1.0611 -0.50198,1.3028 -2.128,0.23871 -0.45493,-2.6831 -9.301,2.4352 -2.9998,1.0438 -0.74791,1.1616 0.29236,2.5588 -0.69311,0.73481 -4.538,-1.545 -0.0036,3.5093 -1.7248,2.9373 -1.2999,2.7294 3.3912,3.9329 3.8889,6.2088 0.39253,2.0926 2.0105,4.4153 -1.8085,5.301 3.0574,0.20805 -1.7657,0.02941 0.36738,1.5686 1.6844,1.2752 -5.1077,-1.3494 -6.7978,0.19288 -2.8581,0.53662 -3.2554,1.9354 -4.0212,2.8623 -2.6971,-1.3774 -9.5095,0.98576 -6.8923,1.1257 -2.5894,-0.53172 -0.21422,1.6062 -2.5071,2.0379 1.3279,1.4248 -2.4513,-1.199 -3.3692,0.70387 -2.8088,0.52609 5.7984,-1.3482 0.52747,-1.5111 -2.7765,0.29693 -4.8819,1.2334 -4.9697,2.7738 -2.3302,-0.27461 -7.7451,-0.20739 -7.6614,0.91996 2.2696,1.0989 8.7515,-1.3758 3.1898,0.24032 -1.7818,0.15203 -5.7832,-0.40921 -2.6467,1.1356 4.114,0.28711 -2.9979,0.04184 -4.2328,0.39157 -4.9796,-0.94623 -5.8839,2.0308 -5.2235,1.2222 -3.609,0.82482 5.1672,2.1409 -0.51532,1.2387 -3.8728,0.40746 -7.8754,2.3558 -11.408,1.7207 0.34416,1.5167 3.6409,1.1128 -0.08116,1.0758 -2.178,0.45257 -7.3264,2.4618 -7.1808,1.791 2.3768,0.14611 6.6527,-1.9761 1.5458,-1.681 -4.5966,1.5196 0.82881,-2.1547 -1.4336,-3.457 -0.39188,-2.0323 -1.669,-6.9983 -6.5746,-5.1357 1.5527,2.0005 -4.3633,0.95381 -0.04132,1.1767 0.03307,-1.5628 -5.468,-0.55756 -3.2711,-1.8406 -1.7327,-0.79765 -8.5398999,-0.52732 -4.7875,1.3417 1.2105,1.3026 -3.0899999,-2.9684 -1.3824,0.0034 2.227,1.751 1.5783,0.32035 -1.0614999,0.46659 -1.2813,1.5161 0.5531099,0.68255 -1.3524,-0.02359 0.52082,0.36383 -2.1952,-1.6376 -3.795,-0.0029 -3.2305,0.83696 -0.68764,1.7631 0.78273,1.4958 -0.62047,1.7665 0.48967,1.3056 -1.0963,0.10688 -4.12940004,-0.38223 0.53927,3.2012 -1.2912,3.3778 -1.1645,3.1136 4.7288,4.1522 4.1416,7.0975 l 4.8222999,22.274005 c 5.607,2.1178 13.273,2.4125 18.969,0.10984 4.2148,-1.6138 4.9325,-4.4795 10.347,-5.2231 4.9121,-1.5997 7.374,-4.269805 12.375,-5.772605 -1.9507,-2.1726 4.5352,-2.3936 5.8051,-0.62691 -0.76694,-1.7982 4.4622,-3.9222 5.7741,-1.9646 -0.49656,-1.8327 4.2843,-3.3184 5.9927,-2.0072 -0.58473,-2.0798 3.3484,-2.1237 4.3359,-1.4115 0.03317,-1.804 4.1735,-2.9099 5.4201,-1.4553 -0.4225,-2.6303 3.8141,-1.9054 5.8376,-3.8467 6.3108,-1.4407 9.5257,-6.0106 16.528003,-5.1748 5.2796,0.04488 11.085,-1.4173 13.842,-4.0902 -2.8348,-8.1662 -3.0977,-13.858 -6.0528,-22.016 2.9147,-2.2069 -0.18606,-4.9956 -0.54942,-7.41 -0.58588,-2.1635 -7.03,-2.4542 -5.0357,0.20814 -4.4728,-0.6609 1.6974,0.41872 -0.70768,-1.0398 -2.0343,-0.43148 -4.3285,-0.09738 -2.5873,-0.99388 -1.7495,-1.1961 -4.456003,-0.0096 -6.638903,-0.12119 z m -53.82,33.602 c -2.115,-1.6614 -10.629,1.2843 -4.2302,1.0736 z m 56.65,-32.912 c 1.406103,-0.03987 -3.2179,0.59688 0,0 z m -2.0662,2.0604 -1.0342,0.19201 z m 11.373003,-0.82294 c 0.74662,0.43026 0.21386,1.0196 0,0 z m -9.262603,1.1154 c 2.451103,-0.32848 -4.1908,1.0264 0,0 z m 2.936903,-0.26453 1.1112,-0.05127 z m 4.3274,0.3578 c 1.197,0.18251 1.5834,0.61575 0,0 z m -11.454003,1.2635 c -0.65014,0.55203 -2.781,1.3201 -0.8231,0.36274 z m 13.906003,-1.2028 c 0.60941,0.89458 -0.3131,1.1445 0,0 z m -17.643003,2.1198 c -1.7088,0.58568 -2.0245,0.50125 0,0 z m 16.231003,-1.6005 c 1.1617,0.96197 0.45215,0.74386 0,0 z m -14.974003,1.8634 0.90506,0.18826 z m 16.017003,-0.91039 c 0.29901,0.99309 -1.6596,0.90889 0.11183,0.21512 z m -17.843003,1.8852 c 2.4002,1.396 8.1998,-1.5813 4.0728,0.65814 -1.2054,-0.57107 -2.9192,0.01012 -4.0728,-0.65814 z m 4.443,0.2869 -0.35208,0.06308 z m 5.826203,-1.31 c 1.0046,0.9024 1.6772,1.308 0.14687,0.23595 -0.10805,1.6277 0.0409,1.0061 -0.14687,-0.23595 z m -3.395203,1.9032 c 4.775803,-0.37917 -5.4744,0.93679 0.02621,1.2699 -3.9625,0.40773 -2.0641,-0.40216 -0.02621,-1.2699 z m 3.522403,-0.22687 c 0.30567,0.30783 -0.716933,-0.0062 0,0 z m 0.36908,0.35473 c 0.92475,0.68942 0.26547,1.5436 0,0 z m -2.420503,4.317 c 3.490203,-0.16714 4.029103,0.12943 0,0 z m -5.3989,6.7468 c -0.05781,0.26026 -0.58278,-0.10825 0,0 z m -79.564,8.7415 c 1.4061,-0.03987 -3.2179,0.59688 0,0 z m 74.705,-7.237 -0.60992,0.21468 z m 0.0095,0.15618 c 0.35879,1.2234 0.30303,2.1759 0,0 z m 4.9744,0.25158 c -1.7077,0.53791 -2.4673,0.63996 0,0 z m -9.7675,1.2462 c 2.8272,1.8546 -6.4801,2.8356 -0.29534,1.4519 1.0913,-0.22762 -0.16136,-0.99679 0.29534,-1.4519 z m -71.987,7.6435 -1.0342,0.19201 z m 11.373,-0.82294 c 0.74662,0.43025 0.21385,1.0196 0,0 z m -9.2627,1.1154 c 2.4511,-0.32848 -4.1907999,1.0264 0,0 z m 65.7,-6.7769 c 0.53017,0.3382 1.247,1.2376 0.34015,0.35923 z m -62.763,6.5124 1.1112,-0.05127 z m 57.835,-5.2561 0.04898,0.02751 z m -53.508,5.6139 c 1.197,0.18251 1.5834,0.61575 0,0 z m -11.4539999,1.2635 c -0.65014,0.55202 -2.781,1.3201 -0.82309,0.36274 z m 13.9059999,-1.2028 c 0.60941,0.89458 -0.31312,1.1445 0,0 z m -17.6429999,2.1198 c -1.7088,0.58569 -2.0245,0.50125 0,0 z m 16.2309999,-1.6005 c 1.1618,0.96197 0.45215,0.74386 0,0 z m -14.9739999,1.8634 0.90507,0.18826 z m 66.1369999,-6.665 c 4.7644,0.26533 -4.5705,1.6253 0.91959,0.56462 1.5931,-0.26129 -0.50391,-0.61948 -0.91959,-0.56462 z m -50.12,5.7546 c 0.29901,0.99309 -1.6596,0.90889 0.11183,0.21513 z m -17.8429999,1.8852 c 2.4002,1.396 8.1997999,-1.5814 4.0728,0.65814 -1.2054,-0.57107 -2.9192,0.01012 -4.0728,-0.65814 z m 4.443,0.2869 -0.35208,0.06308 z m 5.8261999,-1.31 c 1.0046,0.9024 1.6772,1.308 0.14689,0.23595 -0.10808,1.6277 0.04085,1.0061 -0.14689,-0.23595 z m 49.481,-4.1562 c 4.5838,0.29376 -6.0886,1.5612 -0.93101,0.76453 1.173,-0.24051 3.9554,-0.58694 0.93101,-0.76453 z m -52.877,6.0594 c 4.7758,-0.37917 -5.4743999,0.93679 0.02622,1.2699 -3.9624999,0.40774 -2.0640999,-0.40216 -0.02622,-1.2699 z m 3.5224,-0.22687 c 0.30568,0.30783 -0.71692,-0.0062 0,0 z m 0.36909,0.35473 c 1.0096,0.85582 0.0306,1.3951 0,0 z m 36.198,-3.391 c -1.8513,0.65382 -6.2037,2.5676 -2.4415,0.63782 0.95623,0.02812 1.614,-0.44826 2.4415,-0.63782 z m -7.3249,3.5867 c -1.4172,0.43398 -2.667,0.66511 0,0 z m -7.1127,1.3055 c 1.016,1.672 -9.338,2.5244 -2.5467,1.2069 0.88962,-0.27108 3.3123,-0.31173 2.5467,-1.2069 z m -24.049,2.8022 c 3.0848,-0.19524 5.1122,0.17633 0,0 z m 34.715,-3.493 -19.951,6.1109 c 1.0847,3.0288 2.9642,8.2128 3.5552,9.9031 l -4.6932,-12.418 c -0.10747,2.3495 2.1966,2.6979 5.0999,1.2575 l 15.989,-4.8536 z m 25.356,-2.6034 c 5.5883,-0.72977 -1.0906,3.5609 -1.3647,0.36734 -1.9542,0.30356 -0.29428,3.2562 -3.9727,2.4268 0.21684,-2.1831 -3.0644,-1.5546 -1.4756,0.26719 -1.2574,2.0774 -7.4842,1.4093 -3.5455,-0.65917 3.1044,-1.2501 6.6897,-1.9838 10.359,-2.4021 z m 2.7396,1.5829 c 2.1415,2.3294 -6.2578,2.5244 -1.788,0.43895 0.5489,-0.21995 1.2255,-0.24013 1.788,-0.43895 z m -15.428,1.8121 c 2.4807,2.5342 -8.7627,3.9127 -2.831,1.2588 0.87433,-0.47029 1.8519,-0.86797 2.831,-1.2588 z m 10.801,-0.44936 c 2.1556,2.3244 -6.2666,2.5298 -1.8209,0.44469 0.56121,-0.22042 1.2479,-0.24289 1.8209,-0.44469 z m -4.6329,1.3437 c 2.4307,2.3366 -7.8471,3.1749 -3.0229,0.88212 z m 9.8545,-0.56759 c 2.7302,2.2991 -5.2588,3.7722 -2.6303,0.71415 0.93845,-0.14993 1.7385,-0.49754 2.6303,-0.71415 z m -21.8,2.8642 c -1.6324,1.2996 -2.3763,1.7342 0.49534,1.4785 -1.1325,3.9359 -5.1162,-0.11596 -0.49534,-1.4785 z m 6.2525,-0.62717 c 2.4022,2.0954 -7.6893,3.5856 -3.6691,1.077 z m 10.919,-0.87421 c 2.7906,2.3609 -5.0923,3.8962 -2.6181,0.75885 z m -4.5672,1.3369 c 3.411,2.836 -7.5638,4.3573 -3.3774,0.93821 1.0862,-0.3643 2.3791,-0.47865 3.3774,-0.93821 z m 9.9266,-0.06426 c 2.6726,2.1891 -5.196,3.6582 -2.6073,0.73083 0.95028,-0.12798 1.7189,-0.51467 2.6073,-0.73083 z m -15.647,1.7562 c 3.3558,2.5163 -6.8718,4.921 -4.2798,1.2787 1.3454,-0.50722 2.9016,-0.79299 4.2798,-1.2787 z m 11.063,-0.35859 c 2.678,2.2036 -5.1573,3.6759 -2.6034,0.72955 0.94931,-0.12681 1.716,-0.51432 2.6034,-0.72955 z m -19.752,2.3184 c 0.63619,1.0866 3.8544,-1.1538 3.3171,1.0696 -0.0013,2.065 -4.2486,1.7667 -3.1446,-0.41982 l -0.1725,-0.64981 z m 15.201,-0.92425 c 3.1453,2.5984 -7.4482,4.0705 -3.4081,1.034 1.1063,-0.37836 2.3042,-0.65304 3.4081,-1.034 z m 9.8301,-0.29002 c 3.0283,2.2897 -5.6292,3.3487 -2.308,0.73483 z m -15.534,2.0392 c 3.1188,2.4168 -7.2316,4.4228 -3.843,1.167 1.1841,-0.49608 2.6663,-0.66259 3.843,-1.167 z m 10.966,-0.58435 c 2.6299,2.4354 -5.993,2.9131 -1.9028,0.44214 0.74368,0.04642 1.272,-0.28871 1.9028,-0.44214 z m -16.89,2.3955 c 2.5223,1.7191 -5.2045,3.9384 0.61511,2.9441 2.036,1.8173 -4.1093,2.4796 -2.707,-0.02861 -0.24438,-2.0845 -2.0264,-2.1585 2.0918,-2.9155 z m 12.382,-0.96658 c 2.6572,2.053 -6.8457,3.9026 -3.5501,1.1371 z m -5.6883,1.8065 c 2.6102,2.1346 -7.3852,3.6936 -3.5021,1.1153 z"
     fill-opacity="0.73059"
     fill-rule="evenodd"
     filter="url(#bx)"
     id="path374"
     transform="rotate(15.963892,61.430294,78.271461)" />
  <path
     d="M 2.2852119,92.02653 14.81136,53.362253 l 2.119596,1.946552 5.460362,2.965983 3.972049,0.817166 3.5518,0.05877 2.668475,-0.64062 -9.000248,39.927547 -4.083164,1.576139 -5.89174,0.10143 -4.5860157,-1.567163 -3.7014878,-2.65433 -3.0356956,-3.867834 z"
     fill="url(#bw)"
     fill-rule="evenodd"
     id="path376"
     style="fill:url(#bw);stroke-width:1.00257" />
  <path
     d="m 14.934674,44.737753 -0.353445,1.008956 -1.330527,5.104397 1.988596,3.246073 2.608149,1.986755 6.494997,2.902745 4.718662,0.500966 3.419668,-0.850095 2.153168,-1.408288 1.511323,-5.509765 -1.012601,0.820396 -2.45278,1.32258 0.271195,-2.534332 -6.894161,-0.600916 -0.956755,2.664709 -6.136482,-2.343104 0.888702,-2.880068 -2.788937,-1.581386 -1.126328,-1.954648 -0.567753,1.078246 z"
     fill="url(#be)"
     fill-rule="evenodd"
     id="path378"
     style="fill:url(#be);stroke-width:1.00085" />
  <path
     d="m 15.335848,45.374897 -0.04062,-0.991085 0.946596,-1.949341 1.864704,1.186403 0.08429,0.611793 -1.995734,-0.04852 z"
     fill="url(#bf)"
     fill-rule="evenodd"
     id="path380"
     style="fill:url(#bf);stroke-width:1.00085" />
  <path
     d="m 17.986685,43.586591 -1.899238,-1.065686 0.648004,-2.491837 1.890096,1.324261 z"
     fill="url(#bg)"
     fill-rule="evenodd"
     id="path382"
     style="fill:url(#bg);stroke-width:1.00085" />
  <path
     d="m 18.797185,41.206534 -1.710327,-1.272835 0.83283,-0.871821 3.958973,-0.69582 1.246175,1.98893 -1.815966,0.0029 -1.560025,0.467903 z"
     fill="url(#bh)"
     fill-rule="evenodd"
     id="path384"
     style="fill:url(#bh);stroke-width:1.00085" />
  <path
     d="m 23.234518,41.10464 1.815965,-0.0029 0.698748,1.636439 -0.582981,0.225016 -2.226277,-0.375666 z"
     fill="url(#bi)"
     fill-rule="evenodd"
     id="path386"
     style="fill:url(#bi);stroke-width:1.00085" />
  <path
     d="m 25.00776,41.02422 0.588076,-2.508981 0.714993,2.03287 -0.321975,2.258615 z"
     fill="url(#bj)"
     fill-rule="evenodd"
     id="path388"
     style="fill:url(#bj);stroke-width:1.00085" />
  <path
     d="m 25.85286,38.523464 0.620539,2.136449 1.284786,0.04104 3.577071,1.545652 -0.483425,-2.162521 -4.297166,-1.29456 -0.402192,-0.180351 z"
     fill="url(#bk)"
     fill-rule="evenodd"
     id="path390"
     style="fill:url(#bk);stroke-width:1.00085" />
  <path
     d="m 31.136184,43.169126 1.010563,0.09319 1.000397,0.80856 -0.508842,1.552181 -1.863689,-1.643195 z"
     fill="url(#bl)"
     fill-rule="evenodd"
     id="path392"
     style="fill:url(#bl);stroke-width:1.00085" />
  <path
     d="m 33.611298,43.354782 1.867765,-0.183976 1.092816,1.618572 0.527102,1.783228 -0.07314,2.068605 -2.756441,-0.788517 0.558609,-0.819669 -0.211242,-1.301087 z"
     fill="url(#bm)"
     fill-rule="evenodd"
     id="path394"
     style="fill:url(#bm);stroke-width:1.00085" />
  <path
     d="m 34.441043,47.705902 -0.621589,2.172906 2.51573,1.176743 0.528154,-2.526123 z"
     fill="url(#bn)"
     fill-rule="evenodd"
     id="path396"
     style="fill:url(#bn);stroke-width:1.00085" />
  <path
     d="m 33.879377,49.89595 -0.968926,0.441101 0.05788,0.930727 -0.382916,2.698266 1.663622,-0.830053 1.441203,-0.958979 0.722129,-1.164677 z"
     fill="url(#bo)"
     fill-rule="evenodd"
     id="path398"
     style="fill:url(#bo);stroke-width:1.00085" />
  <path
     d="m 32.59765,48.48453 0.32803,2.705748 -4.462725,-0.03596 -2.311592,-0.530666 -0.106625,-2.120031 2.166357,0.358525 2.741214,-0.06471 z"
     fill="url(#bp)"
     fill-rule="evenodd"
     id="path400"
     style="fill:url(#bp);stroke-width:1.00085" />
  <path
     d="m 25.992938,48.684692 0.141159,1.999314 -1.016678,2.647565 -0.191938,-2.275031 z"
     fill="url(#bq)"
     fill-rule="evenodd"
     id="path402"
     style="fill:url(#bq);stroke-width:1.00085" />
  <path
     d="m 25.010792,51.21154 -0.115799,1.991106 c -2.186498,-0.439927 -3.992014,-1.374178 -5.630688,-2.524904 l 2.459885,-0.667569 1.471658,0.747476 z"
     fill="url(#br)"
     fill-rule="evenodd"
     id="path404"
     style="fill:url(#br);stroke-width:1.00085" />
  <path
     d="m 18.982369,50.531794 2.819423,-0.56472 0.416432,-2.36219 -2.288241,0.520777 z"
     fill="url(#bs)"
     fill-rule="evenodd"
     id="path406"
     style="fill:url(#bs);stroke-width:1.00085" />
  <path
     d="M 20.203793,48.073394 18.5351,47.334851 17.277744,46.518083 16.18391,45.356304 l -0.143197,-1.085726 2.32988,0.01351 0.597186,1.085003 1.89822,1.522477 1.112122,0.644626 -2.151131,0.494703 z"
     fill="url(#bt)"
     fill-rule="evenodd"
     id="path408"
     style="fill:url(#bt);stroke-width:1.00085" />
  <path
     d="m 19.413647,45.170151 3.274431,-1.022238 3.280517,0.08957 2.029248,0.384601 2.070883,0.918891 1.684938,1.134979 1.733681,2.32428 0.263044,1.120011 -0.934394,0.320384 -0.115769,-1.861454 -3.298803,0.427585 -3.433876,-0.459923 -1.059334,2.570066 -0.710947,-0.0075 -1.891117,-0.867466 -0.547427,-0.352493 0.321977,-2.258614 -1.762127,-1.091761 -1.333527,-1.230344 z"
     fill="url(#bu)"
     fill-rule="evenodd"
     id="path410"
     style="fill:url(#bu);stroke-width:1.00085" />
  <path
     d="m 19.044968,45.325878 -1.153757,-1.178919 0.879565,-2.621491 1.904336,-1.21828 2.629492,0.09923 -0.52714,2.06933 1.37822,0.394259 1.815967,-0.0029 0.441821,-2.22433 2.243547,0.315307 2.686357,1.486745 -0.440808,1.767536 1.821031,1.565695 0.630738,-2.431481 0.896802,1.170712 0.501712,1.64537 -0.269155,1.620747 -0.715028,1.819689 -1.228908,-2.049289 -2.958542,-2.34818 -3.398324,-1.037434 -2.861058,0.03043 -2.844812,0.426863 z"
     fill="url(#bv)"
     fill-rule="evenodd"
     id="path412"
     style="fill:url(#bv);stroke-width:1.00085" />
  <path
     d="m 15.335848,45.374897 -0.04062,-0.991085 0.946596,-1.949341 1.864704,1.186403 0.08429,0.611793 -1.995734,-0.04852 z"
     fill-opacity="0.15686"
     fill-rule="evenodd"
     id="path414"
     style="stroke-width:1.00085" />
  <path
     d="m 17.986685,43.586591 -1.899238,-1.065686 0.648004,-2.491837 1.890096,1.324261 z"
     fill-opacity="0.15686"
     fill-rule="evenodd"
     id="path416"
     style="stroke-width:1.00085" />
  <path
     d="m 25.00776,41.02422 0.588076,-2.508981 0.714993,2.03287 -0.321975,2.258615 z"
     fill-opacity="0.15686"
     fill-rule="evenodd"
     id="path418"
     style="stroke-width:1.00085" />
  <path
     d="m 34.441043,47.705902 -0.621589,2.172906 2.51573,1.176743 0.528154,-2.526123 z"
     fill-opacity="0.15686"
     fill-rule="evenodd"
     id="path420"
     style="stroke-width:1.00085" />
  <path
     d="m 19.044968,45.325878 -1.153757,-1.178919 0.879565,-2.621491 1.904336,-1.21828 2.629492,0.09923 -0.52714,2.06933 1.37822,0.394259 1.815967,-0.0029 0.441821,-2.22433 2.243547,0.315307 2.686357,1.486745 -0.440808,1.767536 1.821031,1.565695 0.630738,-2.431481 0.896802,1.170712 0.501712,1.64537 -0.269155,1.620747 -0.715028,1.819689 -1.228908,-2.049289 -2.958542,-2.34818 -3.398324,-1.037434 -2.861058,0.03043 -2.844812,0.426863 z"
     fill-opacity="0.15686"
     fill-rule="evenodd"
     id="path422"
     style="stroke-width:1.00085" />
  <path
     d="m 14.934674,44.737753 -0.353445,1.008956 -1.330527,5.104397 1.988596,3.246073 2.608149,1.986755 6.494997,2.902745 4.718662,0.500966 3.419668,-0.850095 2.153168,-1.408288 1.511323,-5.509765 -1.012601,0.820396 -2.45278,1.32258 0.271195,-2.534332 -6.774316,-0.566633 -1.0766,2.630426 -6.136482,-2.343104 0.888702,-2.880068 -2.788937,-1.581386 -1.126328,-1.954648 -0.567753,1.078246 z"
     fill-opacity="0.15686"
     fill-rule="evenodd"
     id="path424"
     style="stroke-width:1.00085" />
  <path
     d="m 21.451794,76.116659 4.95937,0.112739 0.202132,-2.292897 -0.225453,-2.611108 -0.841944,-2.722165 -1.725587,1.726497 -1.375194,2.087924 -0.448925,1.569321 z"
     fill="#d59163"
     fill-rule="evenodd"
     id="path426"
     style="stroke-width:1.00085" />
  <path
     d="m 92.048672,88.086945 12.533068,-38.712048 2.10776,1.944754 5.43306,2.959823 3.95423,0.811693 3.53689,0.05338 2.65845,-0.645136 -9.02382,39.970827 -4.06855,1.583548 -5.8673,0.110534 -4.564493,-1.561308 -3.682013,-2.650628 -3.017108,-3.866047 z"
     fill="url(#bd)"
     fill-rule="evenodd"
     id="path428"
     style="fill:url(#bd);stroke-width:1.00085" />
  <path
     d="m 104.72621,40.703134 -0.35335,1.008982 -1.33054,5.104397 1.98859,3.246075 2.60816,1.986758 6.49499,2.902736 4.71868,0.500976 3.41966,-0.850096 2.15318,-1.408284 1.51124,-5.50979 -1.01261,0.82039 -2.45278,1.322578 0.27122,-2.534322 -6.89418,-0.600926 -0.95676,2.664707 -6.13647,-2.343097 0.8884,-2.880154 -2.78894,-1.581384 -1.12633,-1.954646 -0.56775,1.078246 z"
     fill="url(#bc)"
     fill-rule="evenodd"
     id="path430"
     style="fill:url(#bc);stroke-width:1.00085" />
  <path
     d="m 105.12741,41.340285 -0.0406,-0.991081 0.94658,-1.949341 1.86472,1.186402 0.0843,0.611799 -1.99573,-0.04853 z"
     fill="url(#bb)"
     fill-rule="evenodd"
     id="path432"
     style="fill:url(#bb);stroke-width:1.00085" />
  <path
     d="m 107.77887,39.552443 -1.89924,-1.065686 0.64819,-2.491786 1.89009,1.324264 z"
     fill="url(#ba)"
     fill-rule="evenodd"
     id="path434"
     style="fill:url(#ba);stroke-width:1.00085" />
  <path
     d="m 108.58876,37.171926 -1.71035,-1.272837 0.83283,-0.871818 3.95898,-0.695821 1.24619,1.988935 -1.81598,0.0029 -1.56003,0.467902 z"
     fill="url(#az)"
     fill-rule="evenodd"
     id="path436"
     style="fill:url(#az);stroke-width:1.00085" />
  <path
     d="m 113.02607,37.070033 1.81597,-0.0029 0.69875,1.636438 -0.58296,0.225022 -2.22629,-0.375674 z"
     fill="url(#ay)"
     fill-rule="evenodd"
     id="path438"
     style="fill:url(#ay);stroke-width:1.00085" />
  <path
     d="m 114.79763,36.98941 0.58807,-2.508987 0.71499,2.032871 -0.32197,2.258618 z"
     fill="url(#ax)"
     fill-rule="evenodd"
     id="path440"
     style="fill:url(#ax);stroke-width:1.00085" />
  <path
     d="m 115.64444,34.48889 0.62054,2.136453 1.28479,0.04104 3.57708,1.545648 -0.48343,-2.162513 -4.29716,-1.294589 -0.40218,-0.180379 z"
     fill="url(#aw)"
     fill-rule="evenodd"
     id="path442"
     style="fill:url(#aw);stroke-width:1.00085" />
  <path
     d="m 120.92773,39.134517 1.01058,0.09319 1.0004,0.808562 -0.50872,1.55222 -1.86369,-1.643192 z"
     fill="url(#av)"
     fill-rule="evenodd"
     id="path444"
     style="fill:url(#av);stroke-width:1.00085" />
  <path
     d="m 123.40349,39.32064 1.86778,-0.183973 1.0928,1.618565 0.5271,1.783228 -0.0731,2.068604 -2.75645,-0.788518 0.55863,-0.819661 -0.21127,-1.301094 z"
     fill="url(#au)"
     fill-rule="evenodd"
     id="path446"
     style="fill:url(#au);stroke-width:1.00085" />
  <path
     d="m 124.23336,43.671271 -0.62159,2.172908 2.51575,1.176743 0.52816,-2.526125 z"
     fill="url(#at)"
     fill-rule="evenodd"
     id="path448"
     style="fill:url(#at);stroke-width:1.00085" />
  <path
     d="m 123.67093,45.861341 -0.9689,0.441108 0.0579,0.930727 -0.38291,2.698263 1.6636,-0.830059 1.44121,-0.958981 0.72214,-1.164671 z"
     fill="url(#as)"
     fill-rule="evenodd"
     id="path450"
     style="fill:url(#as);stroke-width:1.00085" />
  <path
     d="m 122.3892,44.449922 0.32805,2.705752 -4.46272,-0.03596 -2.3116,-0.530677 -0.10662,-2.120025 2.16635,0.358519 2.74121,-0.06471 z"
     fill="url(#ar)"
     fill-rule="evenodd"
     id="path452"
     style="fill:url(#ar);stroke-width:1.00085" />
  <path
     d="m 115.78048,44.648692 0.14116,1.999315 -1.01667,2.64757 -0.19195,-2.275035 z"
     fill="url(#aq)"
     fill-rule="evenodd"
     id="path454"
     style="fill:url(#aq);stroke-width:1.00085" />
  <path
     d="m 114.80236,47.176932 -0.1158,1.991103 c -2.18649,-0.439924 -3.99202,-1.374178 -5.63068,-2.524901 l 2.45987,-0.667565 1.47165,0.747473 z"
     fill="url(#ap)"
     fill-rule="evenodd"
     id="path456"
     style="fill:url(#ap);stroke-width:1.00085" />
  <path
     d="m 108.76936,46.496162 2.81941,-0.564727 0.41644,-2.362193 -2.28823,0.520786 z"
     fill="url(#ao)"
     fill-rule="evenodd"
     id="path458"
     style="fill:url(#ao);stroke-width:1.00085" />
  <path
     d="m 109.99536,44.038782 -1.66871,-0.73854 -1.25733,-0.816769 -1.09385,-1.161773 -0.14319,-1.085729 2.32987,0.01351 0.5972,1.085005 1.89821,1.522483 1.11213,0.64463 -2.15113,0.494702 z"
     fill="url(#an)"
     fill-rule="evenodd"
     id="path460"
     style="fill:url(#an);stroke-width:1.00085" />
  <path
     d="m 109.2052,41.135547 3.27444,-1.02224 3.28052,0.08956 2.02923,0.384595 2.07091,0.918903 1.68492,1.134974 1.73369,2.324285 0.26303,1.12 -0.93439,0.320392 -0.11576,-1.86145 -3.29879,0.427582 -3.43389,-0.459924 -1.05934,2.570065 -0.71094,-0.0075 -1.89111,-0.86747 -0.54743,-0.352491 0.32197,-2.258619 -1.76213,-1.091756 -1.33352,-1.230348 z"
     fill="url(#am)"
     fill-rule="evenodd"
     id="path462"
     style="fill:url(#am);stroke-width:1.00085" />
  <path
     d="m 108.83652,41.291263 -1.15376,-1.178912 0.87958,-2.621492 1.90433,-1.218282 2.6295,0.09923 -0.52716,2.069321 1.3782,0.394253 1.81596,-0.0029 0.44184,-2.224327 2.24353,0.315302 2.68635,1.486742 -0.44083,1.767537 1.82104,1.565689 0.63085,-2.431445 0.89678,1.170707 0.50174,1.645376 -0.26918,1.620746 -0.715,1.819694 -1.22892,-2.0493 -2.95853,-2.348172 -3.39833,-1.037467 -2.86107,0.03043 -2.8448,0.426868 z"
     fill="url(#al)"
     fill-rule="evenodd"
     id="path464"
     style="fill:url(#al);stroke-width:1.00085" />
  <path
     d="m 105.12741,41.340285 -0.0406,-0.991081 0.94658,-1.949341 1.86472,1.186402 0.0843,0.611799 -1.99573,-0.04853 z"
     fill-opacity="0.15686"
     fill-rule="evenodd"
     id="path466"
     style="stroke-width:1.00085" />
  <path
     d="m 107.77887,39.552443 -1.89924,-1.065686 0.64819,-2.491786 1.89009,1.324264 z"
     fill-opacity="0.15686"
     fill-rule="evenodd"
     id="path468"
     style="stroke-width:1.00085" />
  <path
     d="m 114.79763,36.98941 0.58807,-2.508987 0.71499,2.032871 -0.32197,2.258618 z"
     fill-opacity="0.15686"
     fill-rule="evenodd"
     id="path470"
     style="stroke-width:1.00085" />
  <path
     d="m 124.23336,43.671271 -0.62159,2.172908 2.51575,1.176743 0.52816,-2.526125 z"
     fill-opacity="0.15686"
     fill-rule="evenodd"
     id="path472"
     style="stroke-width:1.00085" />
  <path
     d="m 108.83652,41.291263 -1.15376,-1.178912 0.87958,-2.621492 1.90433,-1.218282 2.6295,0.09923 -0.52716,2.069321 1.3782,0.394253 1.81596,-0.0029 0.44184,-2.224327 2.24353,0.315302 2.68635,1.486742 -0.44083,1.767537 1.82104,1.565689 0.63085,-2.431445 0.89678,1.170707 0.50174,1.645376 -0.26918,1.620746 -0.715,1.819694 -1.22892,-2.0493 -2.95853,-2.348172 -3.39833,-1.037467 -2.86107,0.03043 -2.8448,0.426868 z"
     fill-opacity="0.15686"
     fill-rule="evenodd"
     id="path474"
     style="stroke-width:1.00085" />
  <path
     d="m 104.72621,40.703134 -0.35335,1.008982 -1.33054,5.104397 1.98859,3.246075 2.60816,1.986758 6.49499,2.902736 4.71868,0.500976 3.41966,-0.850096 2.15318,-1.408284 1.51124,-5.50979 -1.01261,0.82039 -2.45278,1.322578 0.27122,-2.534322 -6.77431,-0.566635 -1.07663,2.630416 -6.13647,-2.343097 0.8884,-2.880154 -2.78894,-1.581384 -1.12633,-1.954646 -0.56775,1.078246 z"
     fill-opacity="0.15686"
     fill-rule="evenodd"
     id="path476"
     style="stroke-width:1.00085" />
  <path
     d="m 110.69846,71.949966 4.95936,0.112739 0.20213,-2.292898 -0.22543,-2.611101 -0.84194,-2.72217 -1.72559,1.726495 -1.37521,2.087923 -0.44892,1.569317 z"
     fill="#d59163"
     fill-rule="evenodd"
     id="path478"
     style="stroke-width:1.00085" />
  <path
     d="m 46.041893,95.758681 -22.428396,1.354505 7.116826,-30.090656 26.512819,-0.904362 46.473148,-1.332433 -7.848197,27.661303 -19.38709,1.375626 5.08546,-18.003974 -7.51368,-3.194153 -6.670717,-0.928784 -8.603503,1.522018 -7.039427,3.079503 -5.697019,19.461991 z"
     fill="url(#ak)"
     fill-rule="evenodd"
     id="path480"
     style="fill:url(#ak);stroke-width:1.00085" />
  <path
     d="m 76.81322,73.54636 c 0.522989,0.241367 4.959554,2.244456 4.959554,2.244456 L 76.473377,93.679262 72.070348,90.12604 76.813211,73.546285 Z"
     fill="url(#aj)"
     fill-rule="evenodd"
     id="path482"
     style="fill:url(#aj);stroke-width:1.00085" />
  <path
     d="m 76.81322,73.54636 c 0.522989,0.241367 4.959554,2.244456 4.959554,2.244456 L 76.473377,93.679262 72.070348,90.12604 76.813211,73.546285 Z"
     fill-opacity="0.15686"
     fill-rule="evenodd"
     id="path484"
     style="stroke-width:1.00085" />
  <path
     d="m 43.374685,95.883743 5.98687,-20.928466 4.098778,-2.395568 5.366159,-2.097897 4.86968,-0.812672 4.425678,-0.16123 5.674892,0.650281 3.308676,0.816739 5.059348,1.90141 2.473118,1.485956 -5.574126,19.035366 -2.613457,0.355239 5.146205,-17.98973 -5.951342,-2.610693 -5.111809,-1.267683 -4.153207,0.109408 -6.94627,0.867326 -7.223748,3.188297 -0.664962,0.523394 -5.464047,19.325957 -2.706302,0.0043 z"
     fill="#ffffff"
     fill-opacity="0.12549"
     fill-rule="evenodd"
     id="path486"
     style="stroke-width:1.00085" />
  <path
     d="m 52.080126,76.746382 27.345476,-0.388679 0.463782,-0.188436 c 0,0 0.11488,-0.242369 0.03711,-0.448111 -0.07777,-0.205739 -0.119145,-0.538684 -0.119145,-0.538684 l -25.250532,0.07045 -2.518015,1.160473 0.04138,0.332946 z"
     fill="url(#ai)"
     fill-rule="evenodd"
     id="path488"
     style="fill:url(#ai);stroke-width:1.00085" />
  <path
     d="m 50.62822,80.230105 27.893453,-0.552978 0.463772,-0.18844 c 0,0 0.11488,-0.24237 0.0371,-0.44811 -0.07777,-0.20574 -0.191216,-0.605176 -0.191216,-0.605176 l -27.869196,0.468187 -0.333918,1.326507 z"
     fill="url(#ah)"
     fill-rule="evenodd"
     id="path490"
     style="fill:url(#ah);stroke-width:1.00085" />
  <path
     d="m 49.330342,84.767134 28.055985,-0.965241 0.463784,-0.188437 c 0,0 0.307528,-0.279011 0.229762,-0.484749 -0.07777,-0.205738 -0.275405,-0.629258 -0.275405,-0.629258 l -28.309651,1.213837 -0.164834,1.053818 z"
     fill="url(#ag)"
     fill-rule="evenodd"
     id="path492"
     style="fill:url(#ag);stroke-width:1.00085" />
  <path
     d="m 48.219526,89.128863 28.148195,-1.443484 0.481616,-0.09159 c 0,0 0.295398,-0.236606 0.224041,-0.624003 -0.03986,-0.216553 -0.185504,-0.465915 -0.185504,-0.465915 l -28.363967,1.244165 -0.303964,1.380941 z"
     fill="url(#af)"
     fill-rule="evenodd"
     id="path494"
     style="fill:url(#af);stroke-width:1.00085" />
  <path
     d="m 47.001903,92.587668 28.38767,-1.007953 0.463786,-0.188437 c 0,0 0.307527,-0.279012 0.229743,-0.484754 -0.07778,-0.205743 -0.438082,-0.538179 -0.438082,-0.538179 l -28.339159,0.83837 -0.303964,1.380941 z"
     fill="url(#ae)"
     fill-rule="evenodd"
     id="path496"
     style="fill:url(#ae);stroke-width:1.00085" />
  <path
     d="m 54.852687,74.695535 -5.580468,19.826194 0.306086,0.362795 0.457358,-0.0068 0.807685,-0.594653 5.19518,-19.752916 -1.185844,0.165373 z"
     fill="url(#ad)"
     fill-rule="evenodd"
     id="path498"
     style="fill:url(#ad);stroke-width:1.00085" />
  <path
     d="m 61.512548,72.747369 -5.896563,21.24957 0.306088,0.362793 0.457352,-0.0068 0.62075,-0.418768 5.993597,-21.588784 -1.481236,0.40198 z"
     fill="url(#ac)"
     fill-rule="evenodd"
     id="path500"
     style="fill:url(#ac);stroke-width:1.00085" />
  <path
     d="m 67.60372,72.150318 -5.854457,21.261617 0.269691,0.490008 0.697811,0.10787 0.591505,-0.794117 5.775976,-21.146439 -1.48052,0.08108 z"
     fill="url(#ab)"
     fill-rule="evenodd"
     id="path502"
     style="fill:url(#ab);stroke-width:1.00085" />
  <path
     d="m 72.278587,72.524307 -5.907963,20.971065 0.306083,0.362791 0.457355,-0.0068 0.80769,-0.594657 5.792377,-20.407791 -1.455552,-0.324622 z"
     fill="url(#aa)"
     fill-rule="evenodd"
     id="path504"
     style="fill:url(#aa);stroke-width:1.00085" />
  <path
     d="m 77.46932,73.642199 -5.465593,19.583822 0.306095,0.362796 0.601482,0.126183 0.663564,-0.727627 5.277211,-18.766127 -1.38277,-0.579053 z"
     fill="url(#z)"
     fill-rule="evenodd"
     id="path506"
     style="fill:url(#z);stroke-width:1.00085" />
  <path
     d="m 31.690423,61.873288 4.846197,-0.275899 -0.186745,2.255196 5.789796,0.271101 0.260004,-2.511311 5.232522,0.296399 -0.307379,2.035971 5.693647,-0.03347 0.452441,-1.902117 4.518668,-0.09252 -0.198224,1.97484 4.821778,-0.19053 0.610455,-2.133986 4.057658,0.237302 -0.160883,1.523839 4.468416,0.724181 0.295907,-2.316325 4.518667,-0.09252 -0.173826,1.889566 4.15382,0.541841 0.636309,-2.865345 4.918021,0.114076 0.455345,2.254159 3.57355,0.0065 0.405075,-2.377455 5.124882,-0.288535 -0.902026,2.512263 4.808852,0.1752 0.91489,-2.87801 c 0,0 4.73844,-0.860764 4.64078,-0.519376 -0.0977,0.341386 -1.2339,4.633687 -1.2339,4.633687 L 51.692168,66.30258 30.69743,66.945633 31.689974,61.87358 Z"
     fill="url(#y)"
     fill-rule="evenodd"
     id="path508"
     style="fill:url(#y);stroke-width:1.00085" />
  <path
     d="m 31.848007,61.641503 0.307389,-2.035969 2.532267,-0.199058 2.175986,2.007619 -5.015705,0.22741 z"
     fill="url(#c)"
     fill-rule="evenodd"
     id="path510"
     style="fill:url(#c);stroke-width:1.00085" />
  <path
     d="m 36.452059,61.573196 3.210212,-0.0051 2.405827,2.165727 -5.669221,-0.0519 0.05315,-2.108697 z"
     fill="url(#d)"
     fill-rule="evenodd"
     id="path512"
     style="fill:url(#d);stroke-width:1.00085" />
  <path
     d="m 39.734937,61.311874 0.512797,-1.792602 2.236321,2.117238 -0.405068,2.377456 -2.344079,-2.7021 z"
     fill="url(#e)"
     fill-rule="evenodd"
     id="path514"
     style="fill:url(#e);stroke-width:1.00085" />
  <path
     d="m 40.635977,59.445621 5.002775,0.138321 1.727888,1.97179 -4.893598,-0.199444 z"
     fill="url(#f)"
     fill-rule="evenodd"
     id="path516"
     style="fill:url(#f);stroke-width:1.00085" />
  <path
     d="m 47.366489,61.5559 3.172874,0.445918 2.345495,2.05611 -5.814217,-0.185728 0.295906,-2.316325 z"
     fill="url(#g)"
     fill-rule="evenodd"
     id="path518"
     style="fill:url(#g);stroke-width:1.00085" />
  <path
     d="m 51.18539,60.062556 -0.392123,2.011729 2.285163,1.946493 0.247063,-2.145583 -2.14017,-1.812658 z"
     fill="url(#h)"
     fill-rule="evenodd"
     id="path520"
     style="fill:url(#h);stroke-width:1.00085" />
  <path
     d="m 51.307497,59.635701 4.699696,0.236228 1.861486,1.825296 -4.482757,0.287509 -2.078301,-2.349104 z"
     fill="url(#i)"
     fill-rule="evenodd"
     id="path522"
     style="fill:url(#i);stroke-width:1.00085" />
  <path
     d="m 57.748463,61.478226 2.918609,0.373182 2.091328,1.983402 -4.966863,0.05667 -0.04307,-2.413293 z"
     fill="url(#j)"
     fill-rule="evenodd"
     id="path524"
     style="fill:url(#j);stroke-width:1.00085" />
  <path
     d="m 60.938417,59.620039 -0.247063,2.145583 2.11575,1.898029 0.440965,-2.182472 -2.309585,-1.861121 z"
     fill="url(#k)"
     fill-rule="evenodd"
     id="path526"
     style="fill:url(#k);stroke-width:1.00085" />
  <path
     d="m 61.156739,59.498613 4.494245,-0.0072 1.872978,2.105654 -4.021757,-0.0423 -2.345495,-2.056108 z"
     fill="url(#l)"
     fill-rule="evenodd"
     id="path528"
     style="fill:url(#l);stroke-width:1.00085" />
  <path
     d="m 67.294053,61.438156 2.08266,0.411078 2.151563,2.092988 -4.408082,-0.614573 0.173827,-1.889566 z"
     fill="url(#m)"
     fill-rule="evenodd"
     id="path530"
     style="fill:url(#m);stroke-width:1.00085" />
  <path
     d="m 69.267526,61.910754 0.828788,-2.256246 1.995057,1.678896 -0.36917,2.57244 -2.454673,-1.994986 z"
     fill="url(#n)"
     fill-rule="evenodd"
     id="path532"
     style="fill:url(#n);stroke-width:1.00085" />
  <path
     d="m 70.012296,59.629953 4.712597,-0.129406 1.667553,1.862177 -4.09499,0.213721 z"
     fill="url(#o)"
     fill-rule="evenodd"
     id="path534"
     style="fill:url(#o);stroke-width:1.00085" />
  <path
     d="m 76.754992,61.374914 1.646065,0.655572 1.776731,1.801049 -3.694225,-0.225673 0.271484,-2.230953 z"
     fill="url(#p)"
     fill-rule="evenodd"
     id="path536"
     style="fill:url(#p);stroke-width:1.00085" />
  <path
     d="m 78.952973,59.141021 -0.805801,2.816859 2.309582,1.861119 0.587471,-2.6946 -2.091329,-1.9834 z"
     fill="url(#q)"
     fill-rule="evenodd"
     id="path538"
     style="fill:url(#q);stroke-width:1.00085" />
  <path
     d="m 79.037342,59.165156 2.066905,2.068771 5.196609,0.101411 -2.187476,-2.287977 z"
     fill="url(#r)"
     fill-rule="evenodd"
     id="path540"
     style="fill:url(#r);stroke-width:1.00085" />
  <path
     d="m 86.047471,61.262437 1.816991,0.05805 1.982152,2.044527 -3.549229,-0.09186 -0.249897,-2.010774 z"
     fill="url(#s)"
     fill-rule="evenodd"
     id="path542"
     style="fill:url(#s);stroke-width:1.00085" />
  <path
     d="m 87.755027,61.38106 0.356233,-2.206711 2.200409,1.922247 -0.670785,2.024372 -1.885908,-1.739923 z"
     fill="url(#t)"
     fill-rule="evenodd"
     id="path544"
     style="fill:url(#t);stroke-width:1.00085" />
  <path
     d="m 88.06232,59.346003 6.082826,-0.753256 1.824132,2.276396 -5.730971,0.48448 z"
     fill="url(#u)"
     fill-rule="evenodd"
     id="path546"
     style="fill:url(#u);stroke-width:1.00085" />
  <path
     d="m 95.569774,60.661981 2.045323,0.86213 2.260735,2.031863 -5.221024,-0.01604 0.914981,-2.877981 z"
     fill="url(#v)"
     fill-rule="evenodd"
     id="path548"
     style="fill:url(#v);stroke-width:1.00085" />
  <path
     d="m 97.664329,61.353099 0.877636,-2.426986 1.861485,1.825288 -0.926451,2.597633 -1.812642,-1.996031 z"
     fill="url(#w)"
     fill-rule="evenodd"
     id="path550"
     style="fill:url(#w);stroke-width:1.00085" />
  <path
     d="m 98.324799,58.402515 4.882111,-0.08092 1.81266,1.996046 -4.78589,0.385514 z"
     fill="url(#x)"
     fill-rule="evenodd"
     id="path552"
     style="fill:url(#x);stroke-width:1.00085" />
  <path
     d="m 118.52297,35.159555 c -0.91891,-0.256626 -1.83894,-0.468766 -2.76495,-0.693182 l -0.60395,2.566517 c -0.53505,0.142509 -1.12609,-0.06492 -1.67728,-0.05587 l 0.11659,-0.521025 -1.34459,-2.243438 c -1.6102,0.326874 -3.18987,0.184751 -5.59664,1.692667 l -0.50062,2.43302 c -1.56747,2.547782 -2.21628,5.71164 -2.85325,8.608223 0.16278,1.00186 0.76088,1.821219 1.37013,2.609459 l -2.79745,8.754628 -3.4493,-0.0084 -0.672919,2.807669 -1.22532,-0.611403 -2.093019,-2.13143 -6.404459,0.646316 -0.298217,2.066983 -1.161209,-0.03869 -1.998491,-2.006557 -5.79319,-0.124526 -0.346048,2.803342 -1.264231,-0.36165 -0.262282,-0.107627 -1.882319,-2.071156 -5.16548,0.18548 -0.285366,2.135882 -1.73311,-0.202286 -2.02859,-2.015168 -4.69218,-0.103062 -0.371596,2.437318 -2.438586,-0.01277 -2.106037,-1.972101 -4.92452,0.02614 -0.517538,2.036854 -2.821262,-0.15485 0.0086,-0.03014 -0.197849,0.0086 -1.951145,-2.058233 -5.530748,-0.245115 -0.504682,2.105752 -2.464456,0.07766 -0.266347,-0.434908 -1.934058,-1.890295 -2.24074,-0.02139 0.107914,-0.490897 c 0.808106,-0.341231 1.531388,-0.804297 2.069731,-1.429777 0.975907,-3.148844 1.509647,-5.658481 2.263946,-8.483308 0.259295,-1.003285 0.21365,-2.116521 -0.126766,-3.19948 -0.469814,-1.260059 -1.117601,-1.724524 -1.671297,-2.467338 l -2.154835,0.133623 -0.198329,0.693305 c -0.522516,-0.508348 -1.038757,-0.608869 -1.599367,-0.783639 l 0.03482,-0.57703 -0.518713,-2.39851 c -0.869332,-0.403148 -1.768321,-0.708234 -2.687364,-0.964419 -0.919028,-0.256244 -1.838941,-0.468806 -2.764972,-0.693135 l -0.603933,2.566519 c -0.535062,0.14251 -1.12609,-0.06492 -1.677302,-0.05588 l 0.116537,-0.521042 -1.34459,-2.243436 c -1.610202,0.326875 -3.189869,0.184752 -5.596633,1.692668 l -0.500618,2.433021 c -1.567469,2.547783 -2.216279,5.711642 -2.853257,8.608221 0.162783,1.001871 0.76088,1.82122 1.370136,2.609461 L 2.0194729,92.163194 C 6.0604696,100.41894 17.508338,102.45053 23.656846,98.71157 l 0.327832,-1.373692 22.66234,-1.474085 0.849453,-3.083298 2.434356,-0.08627 -0.53463,1.86892 c 0.325391,0.652798 1.059627,0.678861 1.707565,-0.163746 l 0.46141,-1.726805 4.679489,-0.194063 -0.452787,1.696662 c 0.500321,0.760417 0.706541,0.814713 1.711953,-0.292924 l 0.413905,-1.446898 4.176251,-0.142357 -0.396659,1.386612 c 0.371307,0.685349 1.567176,0.86244 1.987246,-0.344614 l 0.31043,-1.085176 2.830046,-0.103521 c -0.07649,0.259403 -0.369685,1.300318 -0.422528,1.477044 0.289442,0.494485 0.805023,0.784375 1.9098,-0.301548 l 0.362167,-1.266035 3.840757,-0.107888 -0.431151,1.507188 c 1.508002,1.022923 1.67027,0.02469 1.806486,-0.168051 l 0.37079,-1.296182 2.385558,2.019452 19.040914,-1.336074 c 5.211371,4.402426 13.289341,5.053952 18.118101,2.117541 l 9.30534,-40.155668 c 0.80811,-0.341229 1.53138,-0.804298 2.06973,-1.429776 0.97596,-3.148828 1.50965,-5.65848 2.26394,-8.483308 0.25934,-1.003275 0.21366,-2.116519 -0.12677,-3.199482 -0.46982,-1.260061 -1.1176,-1.724524 -1.67127,-2.467333 l -2.15485,0.133618 -0.19833,0.693306 c -0.52252,-0.508333 -1.03876,-0.608854 -1.59937,-0.783625 l 0.0348,-0.577027 -0.51874,-2.398517 c -0.86929,-0.403138 -1.76829,-0.708225 -2.68735,-0.964415 z m -0.90332,0.198138 c 0.34883,0.08863 0.68175,0.198143 1.08362,0.309983 0.80367,0.22366 1.51363,0.471086 2.22722,0.865403 l 0.31728,1.39518 c -1.34291,-0.68717 -2.44701,-1.444083 -4.42455,-1.493975 l -0.32166,-1.265992 c 0.4046,0.03287 0.76927,0.100752 1.11809,0.189401 z m -1.70724,-0.292717 0.46779,1.438238 -0.24649,1.886119 -0.5968,-1.442534 z m -3.92211,-0.404539 0.83337,1.412373 c -1.48513,-0.01106 -2.54522,0.08129 -3.88452,1.171516 l -1.34523,-1.330527 c 1.35067,-0.959792 2.61417,-1.074414 4.39638,-1.253362 z m 6.55271,2.59192 c 1.0241,0.314133 1.86493,0.823988 2.79035,1.287375 l -0.36248,1.722496 c 0.76275,0.526707 1.59426,1.770716 2.07168,1.864442 l 0.54375,-2.583735 c 0.62185,0.765921 1.06256,1.690348 1.21119,2.368326 0.16002,0.730025 0.0741,1.396223 -0.35844,2.049759 l -0.43116,1.27891 c -1.40091,-3.113982 -4.32266,-4.668847 -7.56586,-5.19709 -2.39021,-0.274124 -5.02467,-0.233502 -7.16168,1.01669 l -0.8638,-0.964533 0.009,-0.258372 0.46161,-1.955021 c 1.24322,-1.150328 2.69746,-1.276941 4.30607,-1.2792 l -0.3498,2.019618 c 0.68367,0.219787 1.44907,0.459927 3.43614,0.395964 l 0.36703,-2.079908 c 0.65407,-0.02482 1.27159,0.166641 1.89648,0.31424 z m 6.85386,2.449799 c 0.5643,0.726072 1.16799,1.085569 1.51689,1.868786 0.34251,0.768944 0.4314,1.749635 0.13994,2.811925 l -2.02956,-0.645807 c 0.36142,-0.662535 0.23801,-1.142145 0.0787,-1.868881 -0.15934,-0.72676 -0.3207,-1.494367 -0.91881,-2.252077 z m -10.20862,-2.333326 0.46354,1.33919 c -0.78785,0.08014 -1.46163,0.171303 -2.32664,-0.17641 l 0.3063,-1.184188 c 0.60501,0.19664 0.94537,0.189764 1.5569,0.02144 z m 6.67341,2.169905 c 0.47942,0.125357 0.90387,0.38912 1.29398,0.826704 l -0.3063,1.184189 c -0.39788,-0.473472 -0.9277,-1.111135 -1.47849,-1.433868 l 0.21108,-0.624438 c 0.0915,0.01682 0.18988,0.02396 0.27951,0.04741 z m -14.83997,-3.33208 1.55594,1.3908 -0.47443,1.886135 c -0.51356,-0.267827 -1.01024,-0.462451 -1.56471,-1.13243 z m 10.54252,4.58113 c 2.7612,0.7398 5.04843,2.036799 6.17265,4.83116 -0.0648,0.292804 -0.21109,0.358532 -0.43474,0.495235 l -0.32999,-1.692311 c -2.22902,0.389082 -4.48168,0.664891 -6.86848,-0.0082 l -1.06423,2.695731 c -1.0647,-0.311853 -1.80868,-0.42046 -2.84631,-1.205553 l 0.40593,-2.329666 c -1.40217,-0.693341 -2.47013,-1.419297 -3.05216,-2.0797 2.06853,-1.162483 4.52976,-1.236383 6.82618,-0.982224 0.41194,0.08603 0.79668,0.169884 1.19115,0.27552 z m 9.49356,3.922352 -0.65085,2.16177 -2.23571,-1.06349 0.57317,-1.662224 z m -20.67027,-5.717348 1.6036,0.882669 0.0514,0.275592 -1.90525,-0.05586 -0.62445,1.1584 c 0.0893,-0.675162 0.47133,-1.673067 0.87468,-2.260797 z m 1.97294,1.640533 c 0.44414,1.023617 1.4318,1.869858 3.34405,2.88063 l -1.65175,0.310147 c -1.32758,-0.905735 -2.93749,-0.819862 -3.51164,-3.091623 z m 14.33187,4.197596 0.1362,2.028204 c -2.28213,-0.0036 -4.07765,0.276595 -6.29188,-0.430238 l -0.0247,-1.50716 c 1.87274,0.353092 3.83166,0.400549 6.18042,-0.09081 z m 1.40106,1.476937 2.27881,0.91277 c -0.61325,1.353998 -1.99246,1.9471 -3.29618,2.415963 l 0.38444,-2.368423 -0.0856,-0.611471 c 0.36602,-0.04834 0.51381,-0.07819 0.71851,-0.348839 z m -18.14188,-4.994064 c 0.62873,1.682841 2.41975,2.103617 3.79977,3.108829 l -0.79323,2.544976 c 1.19842,0.79881 2.21233,1.395023 6.50958,2.742647 l 0.84049,-2.59669 c 2.35388,0.733977 4.42072,0.332165 6.70484,0.352708 l -0.39341,2.855015 c 1.43262,-0.439162 2.46957,-0.739681 3.46783,-1.877706 -0.33633,1.686191 -0.7233,2.579727 -1.34486,4.245986 -3.20174,2.918321 -7.83091,2.565075 -11.63925,1.529389 -3.65369,-1.252298 -7.77097,-3.1746 -9.12572,-7.143393 0.42633,-2.111817 0.41489,-4.40012 1.26855,-5.800498 l 0.12822,1.145435 z m 10.11737,3.676862 0.0117,1.66649 -0.82733,2.209117 0.13454,-1.722478 z m -3.83995,-1.033245 -0.44839,1.795755 -2.11645,0.568536 0.59041,-1.722513 z m -0.22096,2.25214 c 1.09857,0.822243 1.90495,0.990495 2.97959,1.308899 l -0.14723,1.425355 c -1.87186,-0.448547 -3.50773,-1.045474 -5.00037,-2.213075 z m -6.81525,3.789853 c 2.17672,2.249844 4.75167,3.628186 7.66951,4.607143 3.13362,0.917341 6.28263,1.427936 9.45304,0.421435 -1.07842,6.894343 -7.37365,32.559019 -8.89193,39.393446 -8.01674,3.086611 -13.507923,0.987608 -16.918321,-1.872159 l 7.786681,-27.448071 1.37968,-4.823001 -2.10603,-1.9721 -1.19993,-0.01715 c 1.02213,-3.116118 2.24677,-6.830658 2.82722,-8.289563 z m -2.07049,8.603868 1.96009,1.571637 -4.41282,0.172514 -1.598904,-1.468312 z m 2.02436,1.916125 -1.19861,4.189983 -72.832345,1.894841 1.078522,-4.680878 4.279564,-0.275857 -0.349958,2.247846 6.343613,0.249371 0.35858,-2.277988 4.717891,0.240859 -0.44872,2.023929 6.33515,0.05129 0.336944,-2.088518 4.167626,-0.112213 -0.405765,2.101438 5.599735,0.004 0.55203,-2.157429 3.840756,-0.107888 -0.298058,1.838757 4.842358,0.602569 0.479142,-2.471774 4.055688,0.05143 -0.173426,1.97224 4.369381,0.434658 0.681375,-2.609585 4.649227,0.02555 0.0459,2.002371 4.188941,0.154766 0.694076,-2.312458 4.279725,-0.504084 -0.410641,2.915307 5.272879,0.0083 0.9225,-2.997154 z m -6.295641,-1.213962 1.637621,1.446779 -0.513351,2.135884 -1.745005,-1.640549 z m 16.335541,4.933885 c -2.01098,2.054183 -3.2828,3.040687 -4.4269,7.962397 l 5.56948,0.223584 c -0.0272,-1.632595 0.0641,-2.777281 0.0891,-4.409535 -0.0585,-1.666917 -0.53942,-2.279782 -1.2317,-3.776446 z M 27.470564,39.277441 c 0.348819,0.08865 0.681775,0.198047 1.083602,0.309979 0.80367,0.223764 1.513661,0.471071 2.22724,0.865405 l 0.317281,1.395183 c -1.34291,-0.687169 -2.447012,-1.444084 -4.424545,-1.493974 L 26.35247,39.088038 c 0.404593,0.0329 0.769275,0.100753 1.118094,0.189403 z m -1.70724,-0.292715 0.46778,1.438234 -0.246482,1.886121 -0.596803,-1.442534 z m 89.293656,25.934979 c 0.54701,0.940562 0.82265,1.979612 0.85795,3.147763 0.0366,1.212619 -0.0724,2.51938 -0.0844,3.823888 l -4.43412,-0.09446 c 0.88622,-2.698044 1.77172,-5.276641 3.6606,-6.877189 z m -21.500068,-6.117776 2.222203,1.907502 -5.139771,0.323276 -1.663319,-1.584572 z m -71.7157,-20.221748 0.833373,1.412374 c -1.485127,-0.01106 -2.54523,0.08129 -3.884516,1.171517 l -1.345235,-1.330527 c 1.35068,-0.95979 2.61416,-1.074417 4.396378,-1.253364 z m 6.552703,2.59192 c 1.024106,0.314115 1.86493,0.823987 2.790358,1.287377 l -0.36249,1.722492 c 0.762755,0.526708 1.594272,1.770719 2.071706,1.864448 l 0.543731,-2.583734 c 0.621853,0.765921 1.062545,1.690346 1.211175,2.368324 0.160043,0.730029 0.07413,1.39622 -0.358418,2.049762 l -0.430996,1.278959 c -1.40089,-3.113979 -4.322657,-4.668848 -7.565869,-5.197095 -2.390207,-0.274122 -5.02467,-0.2335 -7.161673,1.016694 l -0.863793,-0.964532 0.0088,-0.258372 0.461614,-1.955021 c 1.243232,-1.150323 2.697458,-1.276942 4.306079,-1.279196 l -0.349797,2.019619 c 0.683669,0.219766 1.449064,0.459894 3.436118,0.395959 l 0.367051,-2.079905 c 0.65407,-0.02482 1.271564,0.166636 1.896464,0.314237 z m 67.862409,19.804283 1.792827,0.904189 1.697821,1.463999 -4.30089,0.0089 z M 35.247781,43.621889 c 0.56431,0.726075 1.168004,1.085573 1.516889,1.868788 0.342526,0.768947 0.431394,1.749632 0.139943,2.811925 l -2.029555,-0.645807 c 0.36141,-0.662537 0.238041,-1.142126 0.07874,-1.868886 -0.15932,-0.726764 -0.3207,-1.494367 -0.918797,-2.252074 z m -10.208628,-2.333326 0.463549,1.339193 c -0.787852,0.08014 -1.461631,0.171299 -2.326648,-0.176413 l 0.306244,-1.184204 c 0.605029,0.196625 0.945374,0.189746 1.556901,0.02144 z m 6.673425,2.169907 c 0.479423,0.125382 0.903867,0.38912 1.293978,0.826707 l -0.306243,1.184204 C 32.302436,44.995916 31.772605,44.35825 31.221821,44.03552 l 0.211138,-0.624422 c 0.09141,0.017 0.189891,0.02392 0.279518,0.04736 z m 57.065278,16.454735 1.379728,1.209953 -0.233466,1.72679 -1.581643,-1.528596 z m -71.905242,-19.786814 1.555933,1.390801 -0.474423,1.886135 c -0.513566,-0.267828 -1.010246,-0.462451 -1.564719,-1.13243 z M 103.84449,65.071095 96.053763,92.191902 79.559137,93.27806 85.047618,74.205669 C 82.706061,72.87512 79.567502,71.489167 76.740814,70.688027 68.260748,68.284604 58.138491,68.752501 49.504754,74.832228 L 43.662419,95.596964 24.08393,96.877106 31.003633,66.996113 Z m -19.866199,-5.45472 1.667712,1.455386 -4.236288,-0.10309 -1.465636,-1.36497 z m 4.114438,2.122695 1.732142,1.571649 -2.872842,-0.202217 -0.196716,-1.588965 z M 27.41512,44.707526 c 2.761214,0.739749 5.048427,2.036794 6.172645,4.831155 -0.06479,0.292815 -0.211068,0.358537 -0.434738,0.495237 L 32.823056,48.34161 c -2.229015,0.389084 -4.481697,0.664886 -6.868491,-0.0082 l -1.064218,2.695732 C 23.825549,50.71758 23.08166,50.608666 22.044019,49.823592 l 0.405926,-2.329668 c -1.402165,-0.69334 -2.470109,-1.419289 -3.052151,-2.079696 2.068542,-1.162482 4.529755,-1.236386 6.826181,-0.982225 0.411941,0.08604 0.796689,0.169845 1.191147,0.275519 z m 51.896701,14.943574 1.616135,1.408021 -0.34589,2.575114 -1.848151,-1.735277 z M 36.908684,48.629867 36.257771,50.79162 34.022067,49.72813 34.595216,48.0659 Z m -20.670263,-5.717345 1.603602,0.882669 0.05142,0.275591 -1.905249,-0.05586 -0.624442,1.158401 c 0.08925,-0.675161 0.47132,-1.673057 0.874673,-2.260797 z m 58.213311,16.880977 1.568789,1.459699 -3.49241,0.142316 -1.744996,-1.640547 z M 18.211363,44.553055 c 0.44413,1.023615 1.431794,1.869857 3.344046,2.880629 l -1.651755,0.310145 c -1.32758,-0.905734 -2.937491,-0.81985 -3.511632,-3.09162 z m 14.331852,4.197642 0.136196,2.028202 c -2.282144,-0.0036 -4.077646,0.276598 -6.291876,-0.430235 l -0.02474,-1.50716 c 1.87274,0.353093 3.83166,0.400548 6.18042,-0.09081 z m 45.70455,13.367898 1.822443,1.59748 -2.902941,-0.210824 0.0011,-1.597593 z m -7.890602,-2.126771 1.637612,1.446776 -0.276744,2.105737 -1.770863,-1.550114 z m -36.412905,-9.764192 2.278816,0.91277 c -0.61325,1.353998 -1.992462,1.9471 -3.296175,2.415965 l 0.384449,-2.368408 -0.08559,-0.611472 c 0.366023,-0.04834 0.513817,-0.07819 0.718495,-0.348843 z M 15.802394,45.233581 c 0.628727,1.68284 2.41974,2.103613 3.799776,3.108828 l -0.793163,2.544999 c 1.198445,0.798813 2.212321,1.39501 6.509588,2.742638 l 0.840464,-2.596688 c 2.353885,0.733958 4.420691,0.332157 6.704813,0.3527 l -0.393394,2.855018 c 1.432612,-0.43915 2.469553,-0.739682 3.467829,-1.877705 -0.336328,1.686191 -0.723378,2.579706 -1.34487,4.245973 -3.201739,2.918332 -7.830907,2.565086 -11.639244,1.529402 -3.653705,-1.252302 -7.770961,-3.174599 -9.125712,-7.143392 0.426324,-2.111818 0.414883,-4.400121 1.268551,-5.800498 l 0.128218,1.145436 z m 49.57021,14.538943 1.809588,1.528582 -3.849221,-0.09019 -1.444157,-1.326215 z M 25.919752,48.91044 l 0.01173,1.666489 -0.827328,2.209119 0.134545,-1.722478 z m -3.839952,-1.033244 -0.448554,1.795705 -2.11643,0.568544 0.590395,-1.722519 z m 45.897842,13.716687 1.277057,0.430545 1.792342,1.588871 -3.066294,-0.322777 z m -6.514784,-1.472316 1.740766,1.541504 -0.272189,1.748326 -1.839526,-1.76542 z M 21.858866,50.129341 c 1.098555,0.822239 1.904943,0.990492 2.979581,1.308896 l -0.147236,1.425354 c -1.871859,-0.448548 -3.507713,-1.04549 -5.000355,-2.213071 z m 33.926975,9.803092 1.809428,1.75681 -4.012734,0.02608 -1.766473,-1.679303 z m 4.966024,2.105419 1.852541,1.606091 -4.472857,-0.07293 0.203367,-1.735401 z m -9.18555,-1.584115 1.762243,1.580261 -0.388192,1.584697 -1.63322,-1.575961 z m -6.171473,-0.395792 1.775257,1.420932 -4.558766,-0.227951 -1.517212,-1.412333 z m 5.159637,1.997753 1.87402,1.644844 -4.674936,-0.163349 0.18189,-1.774157 z m -9.916411,-1.988851 1.689186,1.494141 -0.375336,1.653596 -1.581642,-1.528596 z m 36.455054,10.982838 c 2.838311,0.81589 5.428486,1.962804 7.644604,3.328211 l -5.544285,18.925986 -1.858062,0.120686 5.195298,-18.047503 C 80.178798,74.194062 77.514243,73.096896 75.06212,72.457931 67.705748,70.541023 59.872197,71.284789 51.452047,76.106699 l -5.566091,19.343695 -1.956987,0.125008 5.72602,-20.471932 c 8.313194,-6.037882 18.923249,-6.501582 27.438133,-4.053785 z M 15.043603,53.919198 c 2.176729,2.249846 4.751668,3.628186 7.669506,4.607143 3.133617,0.91734 6.282618,1.42793 9.453024,0.42143 -1.078416,6.894344 -7.373644,32.559036 -8.891922,39.393471 C 11.250186,102.97075 4.8110629,96.016428 2.7332947,92.171737 4.9113416,85.602726 12.569059,60.138698 15.043603,53.919198 Z m 19.28111,5.678674 2.037534,1.528568 -4.02998,0.08637 0.327832,-1.373692 z m 5.602515,2.157054 1.981405,1.838615 -5.014659,-0.227922 0.259336,-1.817222 z m 34.639785,11.40926 c 0.89094,0.240855 1.475256,0.439397 2.352037,0.770654 l -0.319053,1.11532 -3.032124,0.0131 0.569118,-1.989482 c 0.143156,0.03627 0.287289,0.05182 0.430019,0.09042 z m -0.761119,-0.185132 -5.829013,20.148958 c -0.731339,0.759985 -0.978067,0.627346 -1.174383,0.348872 l 5.962748,-20.730299 c 0.350229,0.06934 0.692939,0.149142 1.040648,0.232467 z m -1.32017,-0.279829 c -0.235621,0.81094 -0.420389,1.48229 -0.68122,2.381356 l -3.16977,0.03895 0.771839,-2.81198 c 1.034333,0.06845 2.066089,0.202347 3.079149,0.391674 z m 4.755806,1.360462 0.292383,0.116237 -0.250068,0.87417 -0.326869,0.0043 z m 0.554655,0.223892 c 0.313904,0.12827 0.617556,0.290385 0.950185,0.434866 L 73.542137,93.25255 c -0.520084,0.721595 -0.909204,0.03991 -1.182688,-0.07744 z m 1.302762,0.568337 0.404154,0.180839 -0.455893,2.7e-5 z m 0.872741,0.477933 c 0.1526,0.349126 0.35415,0.687192 -0.297417,0.925844 l -0.980608,0.01298 0.267314,-0.934457 z M 69.157156,72.268804 63.473772,93.274681 c -0.505072,1.120303 -0.937506,0.258653 -1.320495,0.176633 l 5.803937,-21.199632 c 0.404317,0.0039 0.79884,-0.0055 1.199933,0.01715 z m 11.227313,3.211724 c 0.343629,0.169194 0.726019,0.322184 1.031864,0.49084 l -4.661475,17.319728 -1.805357,-1.42954 0.821484,-0.02589 c 0.86579,-0.08573 1.141763,-1.269628 0.306521,-1.640672 l -1.316101,0.04745 0.655351,-2.290926 1.522569,-0.08622 c 0.366056,0.08643 1.107942,-1.297356 0.2979,-1.610527 l -1.384925,0.06037 0.6381,-2.230627 1.247279,-0.03452 c 1.214469,-0.475372 0.927421,-1.614712 0.409828,-1.774172 l -1.148354,0.03021 0.655347,-2.290915 1.376302,-0.03023 c 0.686694,-0.618637 0.723571,-1.360863 0.216216,-1.666495 l -1.139732,6.9e-5 0.500136,-1.748337 1.268756,0.0042 c 0.422984,-0.3232 0.547719,-0.692756 0.508275,-1.093799 z m -12.724014,-3.21594 -0.780463,2.842125 -4.150382,0.05193 0.732958,-2.562221 c 1.41613,-0.22825 2.819602,-0.329492 4.19789,-0.33183 z m 9.537158,3.086949 -0.267314,0.934456 -3.724588,0.04329 0.28456,-0.994744 z m -0.353544,1.235894 -0.478657,1.787094 -0.326866,0.0043 0.478657,-1.787093 z m -13.79444,-3.913478 -5.855361,20.924069 c -0.394936,0.511641 -0.754908,0.517154 -1.101331,0.434991 l 5.825411,-21.160872 c 0.374419,-0.08173 0.759482,-0.132535 1.131271,-0.198153 z m 13.1106,3.913516 -0.547484,1.800014 -3.002025,0.02171 0.508758,-1.778482 z m -4.433326,-1.235616 c -0.106533,0.367322 -0.196812,0.579287 -0.306039,0.95599 l -3.109572,0.05617 0.254458,-1.003356 z m -10.122555,-2.406535 -0.599378,2.209105 -4.696571,0.02612 0.163837,-0.57273 c 1.739819,-0.726579 3.446245,-1.274872 5.132118,-1.662496 z m 17.474784,5.618496 c 0.331272,0.584517 0.420799,1.04882 -0.310429,1.085176 l -1.010709,0.0044 0.280326,-1.093787 z m -12.268137,-3.21592 -0.293183,1.024889 -4.120278,0.06054 0.301806,-1.055033 z m 4.515006,1.291578 c -0.206243,0.711152 -0.306225,1.080295 -0.517382,1.808626 l -3.079471,0.06478 0.495902,-1.847381 z m 4.970414,1.976232 -0.31043,1.085176 -3.763309,0.06482 0.310429,-1.085175 z m -9.864833,-1.941484 -0.534628,1.868913 -4.120278,0.06054 0.534628,-1.868914 z m -5.495616,-1.278601 -0.293183,1.024887 -4.675095,0.06488 0.280327,-1.093788 z m 14.946543,4.666986 -0.672597,2.351215 -0.296766,0.01293 0.651117,-2.389969 z m -5.142872,-1.373366 c -0.130334,0.449796 -0.188551,0.664943 -0.319052,1.115319 l -3.070847,0.03464 0.310429,-1.085175 z m 4.398839,1.35617 -0.719945,2.402891 -3.006417,0.150898 0.715712,-2.501933 z M 55.986067,74.827488 50.80705,94.184069 c -0.31854,0.204004 -0.671894,0.714935 -1.023881,0.39192 l 5.277932,-19.360872 c 0.306456,-0.143362 0.620177,-0.25501 0.924961,-0.387612 z m 4.570491,1.89444 -0.504526,1.877524 -4.675096,0.06488 0.513148,-1.907668 z m -5.84396,-1.313029 -0.310429,1.085176 -1.832194,0.03026 c 0.700024,-0.389482 1.382302,-0.76869 2.0738,-1.102508 z m 11.145475,3.383977 -0.310429,1.085176 -4.150377,0.05193 0.310429,-1.085176 z m 4.46766,1.34326 c -0.299439,1.033304 -0.444096,1.56589 -0.732958,2.562221 l -3.036516,0.142289 0.698621,-2.669875 z m 7.825849,2.466964 c -0.0048,0.463807 0.205189,1.01274 -0.405126,1.188528 l -1.187077,0.05175 0.344919,-1.205745 z M 25.661025,68.141846 c -2.010997,2.054177 -3.312929,3.032067 -4.457023,7.95378 l 5.569476,0.223582 c -0.02718,-1.632578 0.09419,-2.768654 0.119226,-4.400908 -0.05847,-1.666912 -0.53942,-2.279782 -1.231683,-3.776441 z m 28.663535,8.623527 -0.521772,1.937813 -2.387009,0.03459 0.534628,-1.868913 0.116175,-0.06459 z m 20.790506,5.980002 -0.319051,1.115319 -3.810656,0.1165 0.340532,-1.076565 z m -9.662273,-2.53575 -0.776072,2.712939 -4.15477,0.181113 0.780462,-2.842126 z M 25.531525,68.822205 c 0.547009,0.940562 0.822638,1.979609 0.857952,3.147763 0.03666,1.212621 -0.07244,2.519381 -0.08442,3.823892 l -4.434134,-0.09447 c 0.886205,-2.698047 1.771719,-5.27664 3.660598,-6.877188 z m 34.451527,10.018377 -0.28895,1.123931 -4.713822,0.08641 0.319052,-1.11532 z m 14.735358,5.291395 -0.616624,2.269394 -0.335493,0.03447 0.663974,-2.32107 z m -0.782761,0.0044 -0.663973,2.32107 -3.027894,0.112147 0.663973,-2.321071 z m -4.429097,-1.13656 c -0.114726,0.395595 -0.212021,0.632778 -0.323286,1.016277 l -2.98917,0.09061 0.275936,-0.964599 z m -9.907303,-2.703675 -0.797709,2.902412 -4.718211,0.215596 0.832201,-3.022988 z m -5.86544,-1.351783 -0.319052,1.115318 -2.356908,0.04321 0.288949,-1.123929 z m 15.380476,5.312885 c -0.259526,0.894505 -0.458634,1.615984 -0.689843,2.411502 l -2.967694,0.129366 0.65974,-2.420112 z m 8.006609,2.290399 c 0.167173,0.252835 0.185301,1.022964 -0.211498,1.080866 l -1.423648,0.0819 0.280326,-1.093786 z m -12.5003,-3.314996 -0.267314,0.934458 -4.167624,0.112214 0.250068,-0.874169 z m -11.30069,-2.841388 -0.849447,3.083275 -2.412878,0.125026 0.896795,-3.134952 z m 20.704273,6.281451 -0.31043,1.085176 -3.866628,0.198334 0.310429,-1.085176 z m -9.739881,-2.264455 -0.698466,2.441644 -4.163395,0.211256 0.694232,-2.540687 z M 58.72393,83.469847 58.482485,84.313872 53.78152,84.469181 53.997092,83.7156 Z m 14.91221,4.559334 -0.646727,2.260782 -0.245033,-0.167917 0.594986,-2.079912 z m -0.860209,0.04742 -0.612235,2.140208 0.133253,0.103344 -3.148293,0.0777 0.620855,-2.170339 z m -4.437719,-1.106416 c -0.09923,0.341422 -0.209818,0.73892 -0.301806,1.055031 l -2.937595,0.137977 0.271704,-1.063643 z m -9.924711,-2.415162 -0.702855,2.570832 -4.688111,0.224206 0.720101,-2.631118 z M 75.7591,90.39745 c 1.079774,0.629197 0.229683,1.010167 -0.147075,1.197126 l -0.980608,0.01298 -0.214934,-0.159308 0.29318,-1.024878 z m -23.374876,-6.621474 -0.206953,0.723451 -2.365533,0.07335 0.168227,-0.701918 z m 15.574572,4.520542 c -0.185211,0.635814 -0.503525,1.657981 -0.650961,2.161741 l -2.86015,0.09491 0.564886,-2.088531 z m -4.467821,-1.115027 -0.271704,1.063643 -4.193497,0.202644 0.310429,-1.085175 z m 9.438074,3.319487 -0.336298,1.175607 -3.840756,0.107888 0.336298,-1.175606 z m -20.820763,-5.760397 -0.737348,2.691407 -2.404256,0.09488 0.776071,-2.712931 z m 11.033377,3.775847 -0.594989,2.079918 -4.176251,0.142359 0.56912,-1.989489 z m -5.525878,-1.058984 -0.271703,1.063642 -4.718212,0.215596 0.301806,-1.055032 z m 9.631693,3.211822 c -0.0776,0.265078 -0.271874,0.956579 -0.336298,1.175606 l -2.860154,0.09492 0.327676,-1.145464 z M 57.25785,88.822523 56.727455,90.79048 52.026489,90.945788 52.56974,89.04673 Z m 5.21984,2.014974 -0.297573,1.154074 -4.176249,0.142358 0.297572,-1.154074 z m -11.201608,-3.073929 -0.293183,1.024888 -2.382778,0.133637 0.271703,-1.063644 z m -0.357934,1.365081 -0.526005,1.83877 -2.404255,0.09488 0.517382,-1.808625 z m 5.740327,1.902981 -0.327676,1.145464 -4.670866,0.163918 0.327675,-1.145463 z m -6.352562,0.237227 -0.310431,1.085182 -2.404255,0.09488 0.319052,-1.115319 z"
     fill-rule="evenodd"
     id="path554"
     style="stroke-width:1.00257" />
</svg>
